<svg xmlns="http://www.w3.org/2000/svg" viewBox="0 0 140.77 123.26"><defs><style>.cls-1,.cls-2{fill:#fff;}.cls-1{fill-rule:evenodd;}</style></defs><g id="Слой_2" data-name="Слой 2"><g id="_Layer_" data-name="&lt;Layer&gt;"><path class="cls-1" d="M23.85,11.33a.95.95,0,0,1-.6-1.68,67.2,67.2,0,0,1,6.18-4.54,1,1,0,0,1,1.31.28,1,1,0,0,1-.28,1.31,63.37,63.37,0,0,0-6,4.41.94.94,0,0,1-.61.22ZM13.46,22.27a.95.95,0,0,1-.75-1.51,64.18,64.18,0,0,1,4.94-5.87A.95.95,0,0,1,19,16.2a63.6,63.6,0,0,0-4.8,5.69.93.93,0,0,1-.76.38ZM6,35.35A.93.93,0,0,1,5.08,34,61,61,0,0,1,8.5,27.17a.94.94,0,1,1,1.63.94,61.73,61.73,0,0,0-3.31,6.67.94.94,0,0,1-.87.57ZM1.76,49.85H1.61a.94.94,0,0,1-.78-1.09,64.11,64.11,0,0,1,1.68-7.48.94.94,0,1,1,1.81.52,64.18,64.18,0,0,0-1.63,7.27.94.94,0,0,1-.93.79ZM1.13,64.93a1,1,0,0,1-.94-.88c-.13-1.64-.19-3.32-.19-5,0-.89,0-1.79.06-2.67a1,1,0,0,1,1-.91.93.93,0,0,1,.9,1c0,.86-.05,1.74-.05,2.6,0,1.62.06,3.25.19,4.85a.94.94,0,0,1-.87,1Z"/><path class="cls-1" d="M103.21,10.25a.91.91,0,0,1-.58-.2,62.35,62.35,0,0,0-6.12-4.24.95.95,0,0,1,1-1.62,68,68,0,0,1,6.3,4.37.95.95,0,0,1-.59,1.69Zm10.68,10.67a1,1,0,0,1-.74-.36,62.31,62.31,0,0,0-5-5.57.95.95,0,0,1,1.34-1.34,66.16,66.16,0,0,1,5.1,5.74.94.94,0,0,1-.16,1.32.93.93,0,0,1-.59.21Zm7.87,12.87a.94.94,0,0,1-.86-.55,60.8,60.8,0,0,0-3.5-6.57.95.95,0,0,1,1.62-1,65.51,65.51,0,0,1,3.6,6.77.93.93,0,0,1-.47,1.25A.89.89,0,0,1,121.76,33.79Z"/><path class="cls-1" d="M45,1.65A5.24,5.24,0,0,0,39.8,6.89V45.46A5.23,5.23,0,0,0,45,50.69H83.6a5.24,5.24,0,0,0,5.24-5.23V6.89A5.25,5.25,0,0,0,83.6,1.65ZM83.6,52.34H45a6.88,6.88,0,0,1-6.88-6.88V6.89A6.89,6.89,0,0,1,45,0H83.6a6.9,6.9,0,0,1,6.89,6.89V45.46A6.89,6.89,0,0,1,83.6,52.34Z"/><path class="cls-1" d="M85.49,13.83a.82.82,0,0,1-.82-.83V8.28a2.46,2.46,0,0,0-2.46-2.45H77.49a.83.83,0,1,1,0-1.66h4.72a4.12,4.12,0,0,1,4.11,4.11V13A.83.83,0,0,1,85.49,13.83Z"/><path class="cls-1" d="M105.58,107.81a.92.92,0,0,1-.71-.33.94.94,0,0,1,.09-1.33,63.79,63.79,0,0,0,5.33-5.2.94.94,0,0,1,1.33-.07,1,1,0,0,1,.07,1.34,67.73,67.73,0,0,1-5.49,5.36,1,1,0,0,1-.62.23Zm-12.49,8.46a1,1,0,0,1-.84-.51,1,1,0,0,1,.41-1.28,62.65,62.65,0,0,0,6.4-3.8.95.95,0,0,1,1.06,1.57,63.59,63.59,0,0,1-6.6,3.91.86.86,0,0,1-.43.11ZM79,121.52a.94.94,0,0,1-.22-1.86,63.48,63.48,0,0,0,7.12-2.17.94.94,0,0,1,.66,1.77,64.71,64.71,0,0,1-7.34,2.24.82.82,0,0,1-.22,0Zm-22.53,1.26h-.11a62.21,62.21,0,0,1-6.81-1.22.94.94,0,1,1,.43-1.84,61.37,61.37,0,0,0,6.61,1.18.94.94,0,0,1-.12,1.88Zm7.78.48H64a.95.95,0,0,1,0-1.89h.23a64,64,0,0,0,7.2-.41.94.94,0,1,1,.22,1.87A63.28,63.28,0,0,1,64.2,123.26Z"/><path class="cls-1" d="M43.15,13.83a.83.83,0,0,1-.83-.83V8.28a4.12,4.12,0,0,1,4.11-4.11h4.72a.83.83,0,0,1,0,1.66H46.43A2.46,2.46,0,0,0,44,8.28V13A.83.83,0,0,1,43.15,13.83Z"/><path class="cls-1" d="M89.67,27H39a.83.83,0,0,1,0-1.65h50.7a.83.83,0,0,1,0,1.65Z"/><path class="cls-1" d="M54.25,17.59,51.59,9.42h1.14l1.27,4c.35,1.11.66,2.1.87,3.06h0c.23-.95.57-2,.93-3l1.38-4h1.13l-2.92,8.17Z"/><rect class="cls-2" x="60.14" y="9.42" width="1.05" height="8.17"/><path class="cls-1" d="M63.8,16.31a3.73,3.73,0,0,0,1.89.53c1.08,0,1.71-.57,1.71-1.4s-.44-1.2-1.54-1.62c-1.34-.47-2.16-1.16-2.16-2.32s1-2.21,2.64-2.21a3.66,3.66,0,0,1,1.81.4l-.29.86a3.2,3.2,0,0,0-1.55-.39c-1.12,0-1.54.67-1.54,1.22,0,.77.49,1.14,1.62,1.58,1.38.53,2.09,1.2,2.09,2.4s-.94,2.35-2.86,2.35a4.26,4.26,0,0,1-2.09-.52Z"/><path class="cls-1" d="M74.83,14.2,74,11.84c-.18-.53-.3-1-.42-1.49h0c-.12.49-.25,1-.41,1.48l-.8,2.37ZM72.15,15l-.85,2.57H70.21L73,9.42h1.27l2.79,8.17H75.92L75.05,15Z"/><path class="cls-1" d="M48,32.15a1.9,1.9,0,1,0,1.9,1.9,1.9,1.9,0,0,0-1.9-1.9Zm0,5.46a3.56,3.56,0,1,1,3.55-3.56A3.57,3.57,0,0,1,48,37.61Z"/><path class="cls-1" d="M52.16,43.67a.83.83,0,0,1-.83-.83v-1a2.21,2.21,0,0,0-2.21-2.21H46.85a2.2,2.2,0,0,0-2.2,2.21v1a.83.83,0,0,1-.83.83.82.82,0,0,1-.82-.83v-1A3.85,3.85,0,0,1,46.85,38h2.27A3.86,3.86,0,0,1,53,41.86v1A.83.83,0,0,1,52.16,43.67Z"/><path class="cls-1" d="M67.26,32.64H55.54a.83.83,0,0,1,0-1.65H67.26a.83.83,0,1,1,0,1.65Z"/><path class="cls-1" d="M67.26,37.49H63.45a.83.83,0,1,1,0-1.65h3.81a.83.83,0,1,1,0,1.65Z"/><path class="cls-1" d="M60,37.49H55.54a.83.83,0,0,1,0-1.65H60a.83.83,0,1,1,0,1.65Z"/><path class="cls-1" d="M67.26,42.34H55.54a.83.83,0,0,1,0-1.65H67.26a.83.83,0,1,1,0,1.65Z"/><path class="cls-1" d="M67.26,47.19H55.54a.83.83,0,0,1,0-1.65H67.26a.83.83,0,1,1,0,1.65Z"/><path class="cls-1" d="M52.16,47.19H43.82a.83.83,0,0,1,0-1.65h8.34a.83.83,0,0,1,0,1.65Z"/><path class="cls-1" d="M78.46,32.64a6.21,6.21,0,1,0,6.21,6.21,6.21,6.21,0,0,0-6.21-6.21Zm0,14.06a7.86,7.86,0,1,1,7.86-7.85A7.86,7.86,0,0,1,78.46,46.7Z"/><path class="cls-1" d="M77.73,41.82a.82.82,0,0,1-.58-.24L75,39.43a.83.83,0,0,1,0-1.17.82.82,0,0,1,1.16,0l1.57,1.57,3.71-3.72a.83.83,0,1,1,1.17,1.17l-4.3,4.3A.82.82,0,0,1,77.73,41.82Z"/><path class="cls-1" d="M35.24,61.42A25.79,25.79,0,1,0,61,87.21,25.82,25.82,0,0,0,35.24,61.42Zm0,53.23A27.44,27.44,0,1,1,62.68,87.21,27.47,27.47,0,0,1,35.24,114.65Z"/><path class="cls-1" d="M37.65,114.44a.83.83,0,0,1-.6-.25.84.84,0,0,1,0-1.17,52,52,0,0,0,4.72-5.16.82.82,0,0,1,1.16-.13.81.81,0,0,1,.13,1.15,54,54,0,0,1-4.86,5.33A.8.8,0,0,1,37.65,114.44Z"/><path class="cls-1" d="M45.55,104.75a.85.85,0,0,1-.43-.12.82.82,0,0,1-.27-1.13c13.78-22.68-7.34-41.89-7.56-42.08a.83.83,0,0,1-.06-1.17.81.81,0,0,1,1.16-.06,44.06,44.06,0,0,1,9.41,13c3.48,7.33,6,18.69-1.54,31.16A.83.83,0,0,1,45.55,104.75Z"/><path class="cls-1" d="M35.24,92.45h0a.81.81,0,0,1-.81-.84c.15-10.31.15-20.45,0-31a.81.81,0,0,1,.81-.83.83.83,0,0,1,.84.81c.15,10.57.15,20.73,0,31.06A.83.83,0,0,1,35.24,92.45Z"/><path class="cls-1" d="M35.24,114.65a.82.82,0,0,1-.82-.82v-3.52a.83.83,0,0,1,1.65,0v3.52A.83.83,0,0,1,35.24,114.65Z"/><path class="cls-1" d="M39.6,88h-31a.83.83,0,1,1,0-1.65h31a.83.83,0,0,1,0,1.65Z"/><path class="cls-1" d="M61.86,88H45.05a.83.83,0,1,1,0-1.65H61.86a.83.83,0,0,1,0,1.65Z"/><path class="cls-1" d="M13.45,103.38a.83.83,0,0,1-.31-1.59,65.36,65.36,0,0,1,7-2.45.82.82,0,1,1,.45,1.58,67.41,67.41,0,0,0-6.8,2.39A.71.71,0,0,1,13.45,103.38Z"/><path class="cls-1" d="M57,103.38a.72.72,0,0,1-.29-.06,63.52,63.52,0,0,0-19.5-4.49.81.81,0,0,1-.78-.87.83.83,0,0,1,.87-.78,65.16,65.16,0,0,1,20,4.6.83.83,0,0,1-.3,1.6Z"/><path class="cls-1" d="M16.05,74.85a.86.86,0,0,1-.27,0c-1-.35-2-.73-2.94-1.13a.82.82,0,0,1-.46-1.07.84.84,0,0,1,1.08-.45c.95.38,1.92.75,2.87,1.09a.84.84,0,0,1,.5,1.06A.83.83,0,0,1,16.05,74.85Z"/><path class="cls-1" d="M35.23,78.31A55.67,55.67,0,0,1,21,76.43a.83.83,0,0,1,.43-1.6C33.29,78,44.93,77.08,57,72.15a.83.83,0,1,1,.62,1.53A59,59,0,0,1,35.23,78.31Z"/><path class="cls-1" d="M32.56,114.39a.83.83,0,0,1-.57-.22c-.54-.52-1.07-1-1.58-1.56a.83.83,0,0,1,0-1.17.82.82,0,0,1,1.17,0c.49.5,1,1,1.54,1.51a.82.82,0,0,1-.57,1.42Z"/><path class="cls-1" d="M21.42,97.59a.84.84,0,0,1-.79-.58C16.2,83.29,23.48,69,31.77,60.29A.82.82,0,1,1,33,61.42c-8,8.41-15,22-10.76,35.09a.82.82,0,0,1-.53,1A1.09,1.09,0,0,1,21.42,97.59Z"/><path class="cls-1" d="M42.32,85.31a1.9,1.9,0,1,0,1.9,1.9,1.91,1.91,0,0,0-1.9-1.9Zm0,5.45a3.55,3.55,0,1,1,3.55-3.55A3.56,3.56,0,0,1,42.32,90.76Z"/><path class="cls-1" d="M18.65,72.87a1.9,1.9,0,1,0,1.9,1.9,1.9,1.9,0,0,0-1.9-1.9Zm0,5.45a3.55,3.55,0,1,1,3.55-3.55A3.56,3.56,0,0,1,18.65,78.32Z"/><path class="cls-1" d="M44.19,104.39a1.9,1.9,0,1,0,1.91,1.9,1.91,1.91,0,0,0-1.91-1.9Zm0,5.45a3.55,3.55,0,1,1,3.56-3.55A3.56,3.56,0,0,1,44.19,109.84Z"/><path class="cls-1" d="M12.93,68.69a.84.84,0,0,1-.81-.65.83.83,0,0,1,.64-1,29.71,29.71,0,0,1,4.83-.63.82.82,0,1,1,.09,1.64,29.16,29.16,0,0,0-4.58.6Z"/><path class="cls-1" d="M5.24,72.5a.82.82,0,0,1-.58-.24.83.83,0,0,1,0-1.16,12.54,12.54,0,0,1,3.82-2.65A.83.83,0,0,1,9.15,70a10.84,10.84,0,0,0-3.32,2.29A.82.82,0,0,1,5.24,72.5Z"/><path class="cls-1" d="M3.15,81.16a.83.83,0,0,1-.8-.63,11.9,11.9,0,0,1-.11-5.24.83.83,0,0,1,1-.64.84.84,0,0,1,.64,1A10.07,10.07,0,0,0,4,80.13a.82.82,0,0,1-.6,1Z"/><path class="cls-1" d="M7.15,88.36a.81.81,0,0,1-.64-.31,38.28,38.28,0,0,1-2.28-3.12A.82.82,0,0,1,5.61,84a36.61,36.61,0,0,0,2.18,3,.82.82,0,0,1-.12,1.16A.78.78,0,0,1,7.15,88.36Z"/><path class="cls-1" d="M13.29,94.29a.81.81,0,0,1-.51-.18c-1.07-.84-2.12-1.73-3.12-2.64a.83.83,0,1,1,1.12-1.22c1,.89,2,1.75,3,2.56A.83.83,0,0,1,13.94,94,.81.81,0,0,1,13.29,94.29Z"/><path class="cls-1" d="M20.74,99.16a.85.85,0,0,1-.4-.1c-1.33-.73-2.63-1.51-3.88-2.32a.82.82,0,1,1,.9-1.38c1.21.79,2.48,1.55,3.78,2.25a.83.83,0,0,1,.32,1.13A.82.82,0,0,1,20.74,99.16Z"/><path class="cls-1" d="M41.48,106.84a.55.55,0,0,1-.18,0l-1.65-.37a.84.84,0,0,1-.62-1,.82.82,0,0,1,1-.62l1.65.37a.83.83,0,0,1-.19,1.63Z"/><path class="cls-1" d="M26.9,100a.81.81,0,0,1-.79-.61l-.57-2.11-.68,1.83a.82.82,0,1,1-1.54-.57l1.16-3.17a1.11,1.11,0,0,1,1.11-.69,1.29,1.29,0,0,1,1.2.91l.91,3.37a.82.82,0,0,1-.58,1A.83.83,0,0,1,26.9,100Z"/><path class="cls-1" d="M22.71,105.3a1.34,1.34,0,0,1-.84-.29,1.08,1.08,0,0,1-.39-1.24l1.15-3.13a.82.82,0,1,1,1.54.57L23.52,103l1.7-1.17a.82.82,0,0,1,1.15.21.83.83,0,0,1-.21,1.15l-2.78,1.91A1.15,1.15,0,0,1,22.71,105.3Z"/><path class="cls-1" d="M36.28,103.18a.83.83,0,0,1-.8-.62l-1.89-7-2,5.4a.83.83,0,0,1-1.55-.57l2.25-6.11a1.24,1.24,0,0,1,1.27-.78A1.58,1.58,0,0,1,35,94.53l2,7.61a.82.82,0,0,1-.58,1A.76.76,0,0,1,36.28,103.18Z"/><path class="cls-1" d="M28.17,111.3a1.71,1.71,0,0,1-1-.36,1.24,1.24,0,0,1-.47-1.41l2.25-6.11a.83.83,0,0,1,1.55.57l-2,5.39,6-4.14a.82.82,0,0,1,.93,1.36L29,111.07A1.41,1.41,0,0,1,28.17,111.3Z"/><path class="cls-1" d="M23.75,99.87c-.13.36.79.74,1.2.89l10.65,4.48a2.55,2.55,0,0,0,1.74-.4,2.55,2.55,0,0,0-1.12-1.4l-11-3.42c-.54-.2-1.4-.47-1.51-.15Zm12.17,7.07a2.72,2.72,0,0,1-.93-.16L24.34,102.3c-2.48-.92-2.41-2.28-2.14-3h0c.47-1.27,1.68-1.55,3.59-.85l11,3.42c1.58.58,2.5,2.77,2.26,3.52a.7.7,0,0,1-.11.23h0A4.15,4.15,0,0,1,35.92,106.94Z"/><path class="cls-1" d="M119.63,71.7h10.79l-1-4.19a9.78,9.78,0,0,1,.21-4.31l2.71-10.7h0a8.11,8.11,0,0,0,.26-2.94c-.4-4.2-3.25-7.15-7.09-7.34a7.18,7.18,0,0,0-5.46,2,8.46,8.46,0,0,0-2.5,6.15,8.24,8.24,0,0,0,.28,2.1l0,.15.15.59,2.6,10.1a9.59,9.59,0,0,1,.08,5l-1.1,3.48Zm11.68,1.41H118.67a.7.7,0,0,1-.67-.91l1.38-4.36a8.24,8.24,0,0,0-.09-4.21L116.68,53.5c-.05-.2-.09-.38-.14-.56l-.05-.16a9.7,9.7,0,0,1-.31-2.46,9.87,9.87,0,0,1,2.93-7.17,8.69,8.69,0,0,1,6.5-2.35c4.5.22,8,3.76,8.42,8.61a9.5,9.5,0,0,1-.3,3.44L131,63.56a8.29,8.29,0,0,0-.19,3.67l1.16,5a.72.72,0,0,1-.13.6A.72.72,0,0,1,131.31,73.11Z"/><path class="cls-1" d="M130.5,52.67a.62.62,0,0,1-.19,0,.69.69,0,0,1-.49-.87,5.51,5.51,0,0,0,.17-2c-.22-2.36-1.73-4.81-4.58-4.95a.71.71,0,1,1,.07-1.41c3.69.19,5.63,3.26,5.91,6.22a7,7,0,0,1-.21,2.5A.7.7,0,0,1,130.5,52.67Z"/><path class="cls-1" d="M117.68,74H132V71.63a.23.23,0,0,0-.24-.23H117.92a.23.23,0,0,0-.24.23V74Zm15,1.4H117a.7.7,0,0,1-.71-.7V71.63A1.64,1.64,0,0,1,117.92,70h13.82a1.64,1.64,0,0,1,1.65,1.64v3.06A.7.7,0,0,1,132.68,75.39Z"/><path class="cls-1" d="M112.12,83.71h26.07v-5a3.34,3.34,0,0,0-3.33-3.33H115.44a3.33,3.33,0,0,0-3.32,3.33v5Zm26.77,1.41H111.41a.7.7,0,0,1-.7-.7v-5.7A4.73,4.73,0,0,1,115.44,74h19.42a4.74,4.74,0,0,1,4.74,4.73v5.7A.7.7,0,0,1,138.89,85.12Z"/><path class="cls-1" d="M136.83,83.06a.7.7,0,0,1-.7-.7V78.72a1.26,1.26,0,0,0-1.27-1.26.7.7,0,0,1-.7-.71.7.7,0,0,1,.7-.7,2.67,2.67,0,0,1,2.67,2.67v3.64A.7.7,0,0,1,136.83,83.06Z"/><path class="cls-1" d="M110.55,85.12a.25.25,0,0,0-.25.25v2.44a.25.25,0,0,0,.25.25h28.56a.25.25,0,0,0,.25-.25V85.37a.25.25,0,0,0-.25-.25Zm28.56,4.35H110.55a1.66,1.66,0,0,1-1.66-1.66V85.37a1.66,1.66,0,0,1,1.66-1.66h28.56a1.66,1.66,0,0,1,1.66,1.66v2.44A1.66,1.66,0,0,1,139.11,89.47Z"/><path class="cls-1" d="M87.32,69.48a16.29,16.29,0,1,0,16.29,16.29A16.3,16.3,0,0,0,87.32,69.48Zm0,34.23a17.94,17.94,0,1,1,17.94-17.94A18,18,0,0,1,87.32,103.71Z"/><path class="cls-1" d="M87.32,73.62A12.15,12.15,0,1,0,99.47,85.77,12.16,12.16,0,0,0,87.32,73.62Zm0,25.95a13.8,13.8,0,1,1,13.8-13.8A13.81,13.81,0,0,1,87.32,99.57Z"/><path class="cls-1" d="M85.75,86.73Zm-6-.51,6.89,5.29,8.49-9.83-1.57-1.61-6.49,7.66a1.05,1.05,0,0,1-.73.4,1.1,1.1,0,0,1-.78-.24l-4.5-3.43-1.31,1.76Zm7,7.16a1.06,1.06,0,0,1-.68-.25L78.1,87a.83.83,0,0,1-.16-1.15l2.3-3.08a.78.78,0,0,1,.54-.32.82.82,0,0,1,.62.16l4.75,3.61,6.74-8a.82.82,0,0,1,.6-.29.84.84,0,0,1,.62.25l2.73,2.8a.83.83,0,0,1,0,1.12L87.55,93a1.09,1.09,0,0,1-.72.4Z"/></g></g></svg>