<svg xmlns="http://www.w3.org/2000/svg" viewBox="0 0 40.95 40.95"><defs><style>.cls-1{fill:none;stroke:#c51f25;stroke-linecap:round;stroke-linejoin:round;stroke-width:2.83px;}.cls-1,.cls-2{fill-rule:evenodd;}.cls-2{fill:#fff;}</style></defs><g id="Слой_2" data-name="Слой 2"><g id="_Layer_" data-name="&lt;Layer&gt;"><polyline class="cls-1" points="37.15 19.28 37.15 39.53 3.8 39.53 3.8 19.28"/><path class="cls-2" d="M1.42,9.75H39.53v9.53H1.42V9.75Zm9.25,0,9.83,0L13.92,2.59A3.62,3.62,0,0,0,8.59,7.5l2.08,2.25Zm19.57,0L32.31,7.5A3.62,3.62,0,1,0,27,2.59L20.45,9.67l9.79.08ZM20.47,39.53v0Zm0,0v0Z"/><path class="cls-1" d="M1.42,9.75H39.53v9.53H1.42V9.75Zm9.25,0L8.59,7.5a3.62,3.62,0,0,1,5.33-4.91L20.5,9.73m9.74,0L32.31,7.5A3.62,3.62,0,1,0,27,2.59L20.45,9.67m0,29.86V9.75m0,29.78V9.75"/></g></g></svg>