<svg xmlns="http://www.w3.org/2000/svg" viewBox="0 0 126.19 126.74"><defs><style>.cls-1{fill:#fff;fill-rule:evenodd;}</style></defs><g id="Слой_2" data-name="Слой 2"><g id="_Layer_" data-name="&lt;Layer&gt;"><path class="cls-1" d="M109.69,25.44A20.08,20.08,0,0,0,103.58,11H93a3.89,3.89,0,0,0-2.88,1.29,3.81,3.81,0,0,0-1,3,4,4,0,0,0,4,3.49H94.8A5.23,5.23,0,0,1,100,24.44a5.32,5.32,0,0,1-5.32,4.68H85.31a3.89,3.89,0,0,0,0,7.77h20.83a20.08,20.08,0,0,0,3.55-11.45ZM71,17h6.61a3.89,3.89,0,1,1,0,7.77H69.2A20.19,20.19,0,0,1,71,17Zm34.13,21.19A20.24,20.24,0,0,1,69.21,26.1h8.42a5.2,5.2,0,1,0,0-10.4H71.69a20.25,20.25,0,0,1,30.4-6.06H93a5.2,5.2,0,0,0-5.18,5.71A5.31,5.31,0,0,0,93.08,20H94.8a3.92,3.92,0,0,1,2.88,1.28,3.86,3.86,0,0,1,1,3,4,4,0,0,1-4,3.5H85.31a5.2,5.2,0,0,0,0,10.4ZM89.44,3.88a21.47,21.47,0,0,1,14.69,5.78.65.65,0,0,1,.49.47,21.57,21.57,0,0,1,2.4,27.8A21.57,21.57,0,0,1,67.87,25.44,21.36,21.36,0,0,1,70,16.07,21.72,21.72,0,0,1,89.44,3.88Zm-20,53.31L84.8,67.59a5.19,5.19,0,0,0,3.3,1.1L121,68.8a.66.66,0,0,0,0-1.32l-32.88-.11a3.87,3.87,0,0,1-2.5-.83l0,0L70.18,56.1A4.92,4.92,0,0,1,68,51.72a3,3,0,0,1,2-2.87,4.07,4.07,0,0,1,3.87.42l10.8,7.31a5.24,5.24,0,0,0,5,3.87c.21,0,.41,0,.62,0L102.09,59a.65.65,0,0,0,.57-.73.66.66,0,0,0-.73-.58L90.18,59.1a3.91,3.91,0,0,1-4.28-3.05c0-.11,0-.21-.05-.32a3.88,3.88,0,0,1,3.41-4.3l18.42-2.25c.5-.06,2.76-.2,3.42-.22.2,0,.4,0,.61,0a6.31,6.31,0,0,1,5.65,4.75l.59,4.39a.65.65,0,0,0,.65.57h.09a.65.65,0,0,0,.56-.74l-.51-3.86H121a.66.66,0,0,0,0-1.32h-2.54a7.66,7.66,0,0,0-6.65-5.11,6.09,6.09,0,0,0-.74,0c-.65,0-2.94.15-3.53.23L89.1,50.12a5.22,5.22,0,0,0-4.58,4.76l-9.9-6.7a5.4,5.4,0,0,0-5.05-.57,4.36,4.36,0,0,0-2.9,4.1,6.28,6.28,0,0,0,2.77,5.48Zm-.66,29.38L71,78.05a1.5,1.5,0,0,0-.18-1.17,1.52,1.52,0,0,0-1-.68A1.62,1.62,0,0,0,68,77.39l-2,7.87a.59.59,0,0,1-.15.28l-1,1a4.92,4.92,0,0,1-3.83,1.51l-4.25,0h-.08A5,5,0,0,0,52.35,92l-3.62,12.49a1.61,1.61,0,0,0,1,2,1.54,1.54,0,0,0,1.91-1L53.79,97a.65.65,0,0,1,.72-.48.66.66,0,0,1,.58.65c0,2.78,0,7,0,7.36a.28.28,0,0,1,0,.09l-.61,19a1.66,1.66,0,0,0,1.59,1.7h0a1.64,1.64,0,0,0,1.64-1.59L58.29,109a.67.67,0,0,1,.73-.63,4.52,4.52,0,0,0,1,0h.08a.65.65,0,0,1,.43.17.62.62,0,0,1,.22.48l.29,14.83a1.64,1.64,0,0,0,3.28-.06c0-2-.37-19.62-.37-19.83,0,0,0-9.58,0-11.37a1.38,1.38,0,0,1,.37-1l4.08-4.37.1-.12L68.6,87l0,0,0-.07,0-.13,0-.06,0-.1Zm21.15,0-.07.19,0,.09,0,0a1.77,1.77,0,0,1-.17.24l-3.47,4.15a1.83,1.83,0,0,0-.44,1.18c-.09,5.4-.2,11.83-.22,12.15v.11l.6,19a1.64,1.64,0,0,1-1.59,1.69h-.05a1.63,1.63,0,0,1-1.64-1.59L82.35,109a.65.65,0,0,0-.73-.63,4.52,4.52,0,0,1-1,0,.64.64,0,0,0-.5.15.67.67,0,0,0-.23.49l-.29,14.83a1.65,1.65,0,0,1-1.64,1.61c-.07,0-.13,0-.34-.13A2.65,2.65,0,0,1,76.3,123l.35-18.34v-3.36c0-3,0-7.1,0-8.5a1.87,1.87,0,0,0-.51-1.29l-4-4.24-.11-.15L72,87l0,0a.79.79,0,0,1,0-.09l0-.12,0,0,0-.07,0-.07L71,83.21l1.23-4.84a2.84,2.84,0,0,0-.15-1.84,1.7,1.7,0,0,1,.56.88l2,7.88a.76.76,0,0,0,.15.28l2.14,2.3c.14.15.6.64,4.35.54,3.35-.08,3.72-.53,3.88-.72L87,85.51a.55.55,0,0,0,.13-.25s2.12-7.92,2.12-7.93a3.06,3.06,0,0,0,.06,1l1.37,5.34-.75,2.81Zm22.89,17.94L109.2,92a5,5,0,0,0-4.38-3.94h-.08l-4.26,0a4.93,4.93,0,0,1-3.82-1.51l-1-1a.61.61,0,0,1-.16-.28l-2-7.89A1.55,1.55,0,0,0,92,76.16a1.51,1.51,0,0,0-1.18.61,1.53,1.53,0,0,0-.25,1.28l2.16,8.49,0,.06,0,.07,0,.07,0,.07,0,0a.25.25,0,0,0,0,.07l0,0,.06.08.12.15L96.63,91a3.07,3.07,0,0,1,.82,2c0,2,.1,11.76.1,11.9l-.37,18.8a1.64,1.64,0,0,0,3.28.06l.29-14.83a.67.67,0,0,1,.74-.64,4.44,4.44,0,0,0,1,0,.67.67,0,0,1,.51.16.62.62,0,0,1,.22.47l.47,14.84a1.64,1.64,0,0,0,1.64,1.59h.06a1.64,1.64,0,0,0,1.58-1.7l-.6-19a.49.49,0,0,1,0-.12c0-.29,0-4.55,0-7.33a.65.65,0,0,1,.57-.65.64.64,0,0,1,.72.48l2.2,8.38a1.51,1.51,0,0,0,2.06.94,1.66,1.66,0,0,0,.81-1.89Zm1.27-.36a3,3,0,0,1-1.56,3.46,2.82,2.82,0,0,1-3.85-1.8l-.93-3.55c0,1.19,0,2.1,0,2.41l.6,19a3,3,0,0,1-2.86,3h-.1a2.94,2.94,0,0,1-3-2.86L102,111.51l-.24,12.31a3,3,0,0,1-3,2.9h-.06a3,3,0,0,1-2.89-3l.36-18.79c0-.2-.06-7.85-.1-11.87a1.73,1.73,0,0,0-.46-1.16l-3.51-3.77L92,87.89l0-.06s-.07-.1-.11-.15l0-.08-.08-.15,0-.09a.61.61,0,0,1,0-.12L92.2,87l-.61.25,0-.09,0-.11,0-.14-.14-.54-.13.52a.11.11,0,0,0,0,0,.56.56,0,0,1,0,.12s0,.08,0,.13a1.17,1.17,0,0,0,0,.11.91.91,0,0,1-.07.14l0,.09a4.27,4.27,0,0,1-.3.44l-3.48,4.15a.54.54,0,0,0-.14.36c-.16,10.11-.2,11.87-.22,12.22l.61,19a3,3,0,0,1-2.87,3h-.09a2.94,2.94,0,0,1-2.95-2.86l-.39-12.31-.24,12.3a3,3,0,0,1-3,2.89,1.82,1.82,0,0,1-1-.31,4,4,0,0,1-1.92-3.5l.35-18.34c0-.08,0-1.49,0-3.33,0-3,0-7.1,0-8.5a.55.55,0,0,0-.16-.39l-3.94-4.24a1.68,1.68,0,0,1-.18-.21l0,0a1.63,1.63,0,0,1-.11-.17l-.05-.08s0-.09-.08-.14l0-.09a1.21,1.21,0,0,1,0-.14l0-.11,0-.11.61-.24-.62.2,0-.1-.26-1-.25,1,0,.1a1.26,1.26,0,0,0-.05.16l0,.09c0,.06,0,.1-.06.15l0,.1-.08.14-.05.08a1.4,1.4,0,0,1-.1.16l0,0a2,2,0,0,1-.19.22L65.3,92.48V103.9c0,.32.38,19.61.38,19.8a3,3,0,0,1-2.9,3h-.06a3,3,0,0,1-2.95-2.9l-.24-12.31-.39,12.32a3,3,0,0,1-3,2.86h-.09a2.89,2.89,0,0,1-2.06-.93,2.93,2.93,0,0,1-.8-2.12l.6-19c0-.3,0-1.22,0-2.41l-.93,3.53a2.84,2.84,0,0,1-2.72,2.06,2.82,2.82,0,0,1-.86-.14,2.93,2.93,0,0,1-1.83-3.57l3.62-12.46a6.31,6.31,0,0,1,5.58-4.9h.15l4.26,0a3.63,3.63,0,0,0,2.85-1.08l.84-.91,2-7.71a2.94,2.94,0,0,1,3.38-2.15l.26.07.17,0a2.9,2.9,0,0,1,3.38,2.15l2,7.71,2,2.11a20,20,0,0,0,6.37-.13l1.68-2L88,77a2.92,2.92,0,0,1,3.41-2.12l.09,0a3.85,3.85,0,0,1,.49-.07A2.88,2.88,0,0,1,94.81,77l2,7.73.85.91a3.62,3.62,0,0,0,2.81,1.08l4.29,0h.15a6.34,6.34,0,0,1,5.6,4.93l3.61,12.44ZM101.81,78.66a3.07,3.07,0,1,1-.54,0,3.27,3.27,0,0,1,.54,0Zm3.14,0a4.45,4.45,0,0,1-2.39,7.53,5,5,0,0,1-.76.06A4.45,4.45,0,1,1,105,78.64ZM62.86,81.79a3.13,3.13,0,1,1-3.12-3.13,3.12,3.12,0,0,1,3.12,3.13Zm-3.12-4.45a4.45,4.45,0,1,1-4.45,4.45,4.44,4.44,0,0,1,4.45-4.45ZM80.85,85.1A3.13,3.13,0,1,0,77.72,82a3.13,3.13,0,0,0,3.13,3.13ZM85.29,82a4.45,4.45,0,1,0-4.44,4.45A4.44,4.44,0,0,0,85.29,82ZM36.46,28.72H26.08V48.49H36.46a8.22,8.22,0,0,1,6.87,3.35V25.37a8.22,8.22,0,0,1-6.87,3.35ZM51.88,44.23a5.66,5.66,0,0,0,0-11.25V44.23ZM47.61,18.48a3,3,0,0,0-3,3V55.77a3,3,0,1,0,5.91,0V21.44a3,3,0,0,0-3-3ZM1.32,39.89A2.1,2.1,0,0,0,3.42,42h1.4c0-.22,0-.44,0-.67V35.9c0-.23,0-.46,0-.68H3.42a2.1,2.1,0,0,0-2.1,2.1v2.57Zm12,8.6h11.5V28.72H13.27A7.18,7.18,0,0,0,6.1,35.9v5.42a7.18,7.18,0,0,0,7.17,7.17Zm4.09,4.71a1,1,0,0,1-1-1V49.8H34.49v2.41a1,1,0,0,1-1,1h-.85a.66.66,0,0,0-.66.66V58l-9.56,0a12,12,0,0,0-2.74.32l-.36-4.54a.67.67,0,0,0-.66-.61ZM36.81,90.9a2.46,2.46,0,0,0,1.73-4.2A2.47,2.47,0,0,0,36.8,86L28,86a2.46,2.46,0,0,0-1.73,4.2,2.43,2.43,0,0,0,1.74.72l8.77,0Zm4.14-7a2.61,2.61,0,0,0,.78-1.9,2.68,2.68,0,0,0-2.68-2.67l-10,0A2.69,2.69,0,0,0,26.36,82a2.67,2.67,0,0,0,2.39,2.65l8,0h2.27A2.62,2.62,0,0,0,41,83.89Zm.37-11.24-9.36,0H30.68A2.68,2.68,0,0,0,30.61,78L39,78h2.28a2.68,2.68,0,0,0,0-5.35ZM42.57,66,31.94,66a2.68,2.68,0,0,0,0,5.36l10.64,0a2.68,2.68,0,0,0,0-5.36ZM32,92.24v.64a1,1,0,0,1-1,1H23.5a1,1,0,0,1-1-.92L21.08,75.32a14.73,14.73,0,0,0,4.32-7.95l.22-1.16,3.29-.12a3.92,3.92,0,0,0-.95,2.6,4,4,0,0,0,1.3,2.94,4,4,0,0,0-1.37,6.57,4,4,0,0,0-1.67,6.66l.22.19a3.84,3.84,0,0,0-1.08.76,3.78,3.78,0,0,0,2.69,6.44Zm7.5-1.13a3.76,3.76,0,0,1-2.67,1.11H33.3v.65A2.3,2.3,0,0,1,31,95.19H23.5a2.32,2.32,0,0,1-2.3-2.12L21,90.83a14.15,14.15,0,0,1-8.55-3.74,11.49,11.49,0,0,1-1-1.16L7.63,86a.66.66,0,0,1,0-1.32h4.19a.64.64,0,0,1,.54.28,11.63,11.63,0,0,0,1.06,1.28,12.64,12.64,0,0,0,7.49,3.32L19.84,76.38c-.38.28-.76.55-1.17.81a.73.73,0,0,1-.35.09.67.67,0,0,1-.56-.31.65.65,0,0,1,.22-.9,13.52,13.52,0,0,0,6.13-8.95l.31-1.68a.66.66,0,0,1,.63-.53l6.84-.23,6.67,0a2.71,2.71,0,0,0,1.89-.79,2.65,2.65,0,0,0,.78-1.9,2.62,2.62,0,0,0-.79-1.89,2.67,2.67,0,0,0-1.89-.78l-16.12.05a11,11,0,0,0-10.87,9.57.66.66,0,0,1-.65.58H7.63a.66.66,0,0,1,0-1.32h2.72a12.22,12.22,0,0,1,8.06-9.45l-.35-4.21h-.7a2.31,2.31,0,0,1-2.31-2.31V49.8H13.27A8.49,8.49,0,0,1,5,43.31H3.42A3.42,3.42,0,0,1,0,39.89V37.32A3.42,3.42,0,0,1,3.42,33.9H5a8.49,8.49,0,0,1,8.24-6.49H36.46c4,0,6.87-2.64,6.87-6.27a1.08,1.08,0,0,1,0-.19,4.27,4.27,0,0,1,8.52.49V31.66a7,7,0,0,1,0,13.9V55.77a4.27,4.27,0,0,1-8.52.49,1.08,1.08,0,0,1,0-.19c0-3.63-2.89-6.27-6.87-6.27h-.65v2.41a2.32,2.32,0,0,1-2.31,2.31h-.2V58l5.24,0a4,4,0,0,1,3,6.68h1.06A4,4,0,0,1,44,72.37a4,4,0,0,1-2,6.89A3.94,3.94,0,0,1,43.05,82a4,4,0,0,1-3.42,4,3.73,3.73,0,0,1,.95,2.48,3.79,3.79,0,0,1-1.1,2.68Zm86.15-18.35a.67.67,0,0,0-.75.56,62.1,62.1,0,0,1-1.47,7.05.67.67,0,0,0,.47.81l.17,0a.65.65,0,0,0,.63-.49,64.33,64.33,0,0,0,1.51-7.2.67.67,0,0,0-.56-.75ZM122,86.84a.66.66,0,0,0-.85.37,61.56,61.56,0,0,1-3,6.53.66.66,0,0,0,.27.89.58.58,0,0,0,.31.08.66.66,0,0,0,.58-.34,63.1,63.1,0,0,0,3.11-6.67.66.66,0,0,0-.37-.86ZM16.58,106.28a.67.67,0,0,0-.93,0,.65.65,0,0,0,0,.93,63.76,63.76,0,0,0,5.26,5.14.66.66,0,0,0,.43.16.65.65,0,0,0,.5-.22.66.66,0,0,0-.06-.93,62.92,62.92,0,0,1-5.16-5ZM47,124.67a63,63,0,0,1-6.86-2.22.66.66,0,0,0-.48,1.23,65.79,65.79,0,0,0,7,2.26l.16,0a.66.66,0,0,0,.17-1.29ZM33.6,119.46a61.67,61.67,0,0,1-6.17-3.73.66.66,0,0,0-.74,1.09,67.16,67.16,0,0,0,6.3,3.81.66.66,0,0,0,.3.07.67.67,0,0,0,.59-.35.66.66,0,0,0-.28-.89ZM8.15,94.62A.65.65,0,1,0,7,95.26a62,62,0,0,0,4,6.2.65.65,0,0,0,.53.28.67.67,0,0,0,.38-.13.65.65,0,0,0,.15-.92,64.32,64.32,0,0,1-3.88-6.07ZM26.59,12.7a.68.68,0,0,0,.38-.12A64.26,64.26,0,0,1,33.1,8.8a.67.67,0,0,0,.27-.9.66.66,0,0,0-.89-.26,63.76,63.76,0,0,0-6.26,3.86.67.67,0,0,0-.17.92.68.68,0,0,0,.54.28ZM53.41,2h.1a63.84,63.84,0,0,1,7.18-.65.66.66,0,0,0,.63-.68A.65.65,0,0,0,60.64,0a64,64,0,0,0-7.32.67.66.66,0,0,0-.56.75.66.66,0,0,0,.65.56Zm-14,3.81a.7.7,0,0,0,.25,0,62.92,62.92,0,0,1,6.83-2.29.64.64,0,0,0,.46-.8.66.66,0,0,0-.8-.47,63.53,63.53,0,0,0-7,2.34.66.66,0,0,0-.37.85.67.67,0,0,0,.61.42ZM15.7,22.34a.68.68,0,0,0,.49-.22A62.94,62.94,0,0,1,21.31,17a.66.66,0,1,0-.87-1,63.91,63.91,0,0,0-5.23,5.18.66.66,0,0,0,0,.93.7.7,0,0,0,.44.17ZM67.29.78A.67.67,0,0,1,68,.17l1.47.14c2,.2,3.91.49,5.82.87a.66.66,0,0,1-.13,1.3H75c-1.87-.37-3.79-.65-5.7-.85-.48-.05-1-.1-1.44-.13A.66.66,0,0,1,67.29.78Z"/></g></g></svg>