<svg xmlns="http://www.w3.org/2000/svg" viewBox="0 0 124.85 127.04"><defs><style>.cls-1{fill:#fff;fill-rule:evenodd;}</style></defs><g id="Слой_2" data-name="Слой 2"><g id="_Layer_" data-name="&lt;Layer&gt;"><path class="cls-1" d="M59.5,88.17l-7.1,7.21L49,91.09a.64.64,0,0,0-1,.8l3.87,4.86a.63.63,0,0,0,.47.25h0a.64.64,0,0,0,.46-.19l7.62-7.74a.64.64,0,1,0-.92-.9Zm-1.44-6.31V76.42l-2.31,4.77a11.35,11.35,0,0,1,2.31.67ZM32.18,90.22H43a10.57,10.57,0,0,1,.55-2v-2H32.18v4Zm31.45,1.86a9.76,9.76,0,1,1-9.76-9.76,9.77,9.77,0,0,1,9.76,9.76ZM33.92,67.78h7.43V64.1a0,0,0,0,0,0,0H34a0,0,0,0,0,0,0v3.68Zm-3.92,0v-6.6a.58.58,0,0,1,.59-.59H44.68a.59.59,0,0,1,.59.59v6.6H42.64V64.1a1.33,1.33,0,0,0-1.33-1.33H34a1.33,1.33,0,0,0-1.33,1.33v3.68ZM17.66,69.71a.64.64,0,0,1,.63-.64H57.42a.64.64,0,0,1,.64.64v3.75L54.38,81h-.51a11.06,11.06,0,0,0-9,4.71v-.16a.65.65,0,0,0-.64-.65H31.54a.65.65,0,0,0-.65.65v2.61H29.07a7,7,0,0,1-6.32-4.12l-.88-1.92-4.21-8.69V69.71Zm.63,30.13a.63.63,0,0,1-.63-.63V76.42l3,6.28.87,1.91a8.35,8.35,0,0,0,7.5,4.87h1.82v1.38a.65.65,0,0,0,.65.65H42.83c0,.19,0,.38,0,.57A11,11,0,0,0,46,99.84Zm29.25,1.3H18.29a1.93,1.93,0,0,1-1.92-1.93V69.71a1.93,1.93,0,0,1,.78-1.55,1.88,1.88,0,0,1,1.14-.38H28.71v-6.6a1.88,1.88,0,0,1,1.88-1.88H44.68a1.88,1.88,0,0,1,1.88,1.88v6.6H57.42a1.93,1.93,0,0,1,1.93,1.93V82.49a11,11,0,1,1-11.81,18.65Zm54.94-37.26,2.24,1.7h0a.66.66,0,0,0,.41.15h.07a.66.66,0,0,0,.61-.44l.9-2.57a.65.65,0,0,0-1.22-.43l-.28.8c-.37-1.06-.75-2-.78-2.05a.65.65,0,0,0-1.19.51s.36.84.7,1.82l-.68-.52a.65.65,0,1,0-.79,1Zm-4.29-6.4A21.12,21.12,0,0,1,101,59a.67.67,0,0,0,.4.14.65.65,0,0,0,.39-1.16,23.24,23.24,0,0,0-3-1.67.65.65,0,0,0-.86.32.65.65,0,0,0,.31.86Zm-6.55-1a21,21,0,0,1,2.71.11h.09a.64.64,0,0,0,.09-1.28,21.19,21.19,0,0,0-2.93-.12.65.65,0,0,0,0,1.29Zm-7,1.34a.62.62,0,0,0,.32-.09,9.43,9.43,0,0,1,2.4-1,.65.65,0,0,0-.23-1.28,11,11,0,0,0-2.81,1.12.65.65,0,0,0-.24.89.66.66,0,0,0,.56.32Zm-5,4a.65.65,0,0,0,.49-.23,15.24,15.24,0,0,1,1.94-1.87.64.64,0,0,0,.12-.91.65.65,0,0,0-.91-.11,16.29,16.29,0,0,0-2.13,2.05.64.64,0,0,0,.07.91.61.61,0,0,0,.42.16Zm-2,4.58a4.51,4.51,0,1,0,4.5,4.5,4.51,4.51,0,0,0-4.5-4.5Zm-5.8,4.5a5.8,5.8,0,1,1,5.8,5.8,5.8,5.8,0,0,1-5.8-5.8Zm32.59,2a1.1,1.1,0,1,0,1.1-1.1,1.1,1.1,0,0,0-1.1,1.1Zm4.13,4.55a.6.6,0,0,1-.31.08.65.65,0,0,1-.57-.33,1.5,1.5,0,0,0-.23-.33,1.82,1.82,0,0,0-1.37-.62H104.8a1.8,1.8,0,0,0-1.3.55,1.61,1.61,0,0,0-.25.32.65.65,0,1,1-1.1-.68A3.1,3.1,0,0,1,104.39,75a2.39,2.39,0,1,1,2.28,0,3.11,3.11,0,0,1,2.17,1.56.64.64,0,0,1-.25.88Zm1.47-3a4.51,4.51,0,1,1-4.5-4.51,4.51,4.51,0,0,1,4.5,4.51Zm1.29,0a5.8,5.8,0,1,1-5.79-5.8,5.8,5.8,0,0,1,5.79,5.8Zm-2.84,12.89c-.23-.32-.47-.64-.71-1L106.61,88l.27-.08,1.63-.63Zm-3.61,1.27-5-7.06c-.58.26-1.15.5-1.71.71a34.7,34.7,0,0,1,4,7.13c.53-.13,1.07-.28,1.61-.43l1.06-.35Zm-4,1.09a43.34,43.34,0,0,1-8.79,1.06V83.56a17.39,17.39,0,0,0,4.74-.87,33.83,33.83,0,0,1,4.05,7ZM90.85,90.73V83.56a15.63,15.63,0,0,1-4.63-1,36.32,36.32,0,0,0-4.06,7.15,43.14,43.14,0,0,0,8.69,1Zm-10-1.35a50.54,50.54,0,0,1-6.39-2.08,20.6,20.6,0,0,1,2.23-2.65l.44.62a.66.66,0,0,0,.53.28.64.64,0,0,0,.52-.28l2.84-4c.41-.24.82-.47,1.25-.68A28.21,28.21,0,0,0,85,82a36.75,36.75,0,0,0-4.11,7.36Zm16.51-8.22c.57-.21,1.17-.46,1.78-.73-.14-.22-.28-.45-.4-.68a20.72,20.72,0,0,0-3.42-1c.57.6,1.27,1.4,2,2.37Zm-5.23,1.12V78.46c.36,0,.73,0,1.09.06A31.68,31.68,0,0,1,96,81.6a16.16,16.16,0,0,1-3.9.68ZM87,81.46a14,14,0,0,0,3.83.81v-3.8c-.44,0-.87,0-1.3.08A32.35,32.35,0,0,0,87,81.46ZM83.74,80c.69.39,1.36.72,2,1,.66-.86,1.27-1.58,1.75-2.12A21.61,21.61,0,0,0,83.74,80Zm-13-8.75c0-.11,0-.22,0-.33a6.94,6.94,0,1,1,13.87,0v.33a10.25,10.25,0,0,1-1.92,5.51h0l-5,7.07-5-7.07a10.15,10.15,0,0,1-1.91-5.51Zm41.75,3.17v.32a10.22,10.22,0,0,1-1.92,5.51l-5,7.08-5-7.08a10.12,10.12,0,0,1-1.91-5.51c0-.11,0-.22,0-.32a6.94,6.94,0,1,1,13.87,0Zm1.29,0v.37A11.57,11.57,0,0,1,111.63,81h0l-3.06,4.31a22.07,22.07,0,0,1,5,13.95.64.64,0,0,1-.65.64.63.63,0,0,1-.64-.64,20.82,20.82,0,0,0-3-10.79c-.65.26-1.3.51-1.93.74l-3.08,1c-.5.15-1,.29-1.52.42a26.21,26.21,0,0,1,1.61,8.62h0a.64.64,0,0,1-.64.64h0a.64.64,0,0,1-.65-.63h0a24.63,24.63,0,0,0-1.61-8.32A44.57,44.57,0,0,1,92.14,92v7.19a.64.64,0,0,1-.65.64.69.69,0,0,1-.32-.08.66.66,0,0,1-.32-.56V92a43.78,43.78,0,0,1-9.18-1.11A26.3,26.3,0,0,0,80,99.21v0a.63.63,0,0,1-.64.62h0a.64.64,0,0,1-.63-.64v0a27.33,27.33,0,0,1,1.7-8.59,51.65,51.65,0,0,1-6.65-2.19,20.57,20.57,0,0,0-3,10.8.65.65,0,0,1-1.29,0,21.77,21.77,0,0,1,6.5-15.63L71.6,77.46a11.43,11.43,0,0,1-2.15-6.21c0-.13,0-.26,0-.38a8.23,8.23,0,1,1,16.45,0v.38a11.6,11.6,0,0,1-2.15,6.21L82.63,79a22.05,22.05,0,0,1,8.86-1.85,21.31,21.31,0,0,1,6.52,1,11,11,0,0,1-.67-3.4c0-.13,0-.25,0-.37a8.42,8.42,0,0,1,8.23-8.6,8,8,0,0,1,2.25.33,8.57,8.57,0,0,1,6,8.27ZM95,116.35a60.7,60.7,0,0,1-6.12,3.39.65.65,0,0,0-.3.86.64.64,0,0,0,.58.36.67.67,0,0,0,.28-.06,62.38,62.38,0,0,0,6.25-3.46.65.65,0,1,0-.69-1.09Zm10.9-8.74c-.86.86-1.75,1.7-2.65,2.51s-1.69,1.47-2.55,2.17a.65.65,0,0,0-.1.91.67.67,0,0,0,.5.24.68.68,0,0,0,.41-.14c.88-.71,1.76-1.46,2.6-2.22s1.83-1.69,2.7-2.57a.64.64,0,1,0-.91-.9ZM68.77,125.42a59.76,59.76,0,0,1-6.28.33c-.24,0-.47,0-.7,0a.65.65,0,1,0,0,1.29h.72a62.59,62.59,0,0,0,6.42-.33.65.65,0,0,0-.14-1.29Zm13.64-3a60.6,60.6,0,0,1-6.73,1.9.65.65,0,0,0-.49.77.63.63,0,0,0,.63.51.36.36,0,0,0,.14,0,61,61,0,0,0,6.87-1.94.66.66,0,0,0,.4-.82.64.64,0,0,0-.82-.4Zm-53.64-6.72a60,60,0,0,1-5.6-4.19.65.65,0,0,0-.91.08.64.64,0,0,0,.08.91,61.25,61.25,0,0,0,5.72,4.28.64.64,0,0,0,.35.1.64.64,0,0,0,.36-1.18ZM41.23,122a59.7,59.7,0,0,1-6.41-2.79.65.65,0,1,0-.59,1.15,63.25,63.25,0,0,0,6.55,2.85.62.62,0,0,0,.23,0,.65.65,0,0,0,.22-1.25Zm13.58,3.29A63.75,63.75,0,0,1,47.92,124a.66.66,0,0,0-.78.48.64.64,0,0,0,.48.77,63.76,63.76,0,0,0,7,1.29h.09a.65.65,0,0,0,.64-.56.64.64,0,0,0-.56-.72ZM1.47,69.41c-.12-1.54-.18-3.12-.18-4.68,0-.76,0-1.54,0-2.31a.63.63,0,0,0-.62-.67.66.66,0,0,0-.67.62c0,.79,0,1.58,0,2.36,0,1.59.06,3.2.18,4.78a.65.65,0,0,0,.65.6H.88a.65.65,0,0,0,.59-.7ZM5.64,42a61.79,61.79,0,0,1,3-6.34.63.63,0,0,0-.26-.87.64.64,0,0,0-.87.26,62.29,62.29,0,0,0-3,6.47.65.65,0,0,0,.36.84.69.69,0,0,0,.24.05.64.64,0,0,0,.6-.41ZM2.4,76.34a.64.64,0,0,0-.75-.51.65.65,0,0,0-.51.76A61,61,0,0,0,2.9,83.51a.64.64,0,0,0,.62.45.63.63,0,0,0,.19,0,.64.64,0,0,0,.42-.81A62.34,62.34,0,0,1,2.4,76.34ZM16.52,23.27a.65.65,0,0,0-.91.05,63,63,0,0,0-4.41,5.62.65.65,0,0,0,.16.9.62.62,0,0,0,.37.11.65.65,0,0,0,.53-.27,60.4,60.4,0,0,1,4.32-5.5.65.65,0,0,0-.06-.91ZM6.63,89.65a.64.64,0,1,0-1.17.53,62.53,62.53,0,0,0,3.3,6.34.65.65,0,0,0,.56.31.68.68,0,0,0,.33-.09.66.66,0,0,0,.22-.89,60.85,60.85,0,0,1-3.24-6.2ZM1.25,56h.1A.65.65,0,0,0,2,55.45a61.1,61.1,0,0,1,1.44-6.84.65.65,0,0,0-1.25-.34,63.8,63.8,0,0,0-1.47,7,.66.66,0,0,0,.54.74ZM21.07,19.37a.64.64,0,0,0,.43-.16l.11-.1A62.67,62.67,0,0,1,27,14.83a.65.65,0,0,0,.15-.9.64.64,0,0,0-.9-.15,63.7,63.7,0,0,0-5.46,4.37l-.11.1a.64.64,0,0,0-.05.91.64.64,0,0,0,.48.21Zm11.49-8.19a.68.68,0,0,0,.31-.08,59.88,59.88,0,0,1,6.31-3,.65.65,0,0,0-.49-1.2A63.52,63.52,0,0,0,32.25,10a.64.64,0,0,0-.25.88.63.63,0,0,0,.56.33Zm77.88,13.59a.65.65,0,1,0-1,.83,63.1,63.1,0,0,1,4.15,5.62.65.65,0,0,0,.54.3.66.66,0,0,0,.35-.11.64.64,0,0,0,.19-.89,62.59,62.59,0,0,0-4.24-5.75Zm12.38,52.88a.66.66,0,0,0-.78.49,60.74,60.74,0,0,1-1.93,6.73.64.64,0,0,0,.4.82.76.76,0,0,0,.21,0,.63.63,0,0,0,.61-.43,61,61,0,0,0,2-6.86.65.65,0,0,0-.48-.78ZM87.36,8.79A60.93,60.93,0,0,1,93.57,12a.63.63,0,0,0,.33.09.65.65,0,0,0,.33-1.2,61.56,61.56,0,0,0-6.35-3.29.64.64,0,1,0-.52,1.17Zm33.33,35.3a.65.65,0,0,0,.39-.83,62.25,62.25,0,0,0-2.84-6.55.64.64,0,0,0-.86-.29.65.65,0,0,0-.29.87,60.44,60.44,0,0,1,2.77,6.41.65.65,0,0,0,.61.43.57.57,0,0,0,.22,0ZM99.37,15.93a62.15,62.15,0,0,1,5.31,4.55.66.66,0,0,0,.45.18.63.63,0,0,0,.46-.2.66.66,0,0,0,0-.92,64.83,64.83,0,0,0-5.43-4.64.65.65,0,1,0-.78,1Zm23.75,41.35a.65.65,0,0,0,.64.57h.08a.64.64,0,0,0,.56-.72,62.37,62.37,0,0,0-1.26-7,.65.65,0,0,0-1.26.3,59.55,59.55,0,0,1,1.24,6.89Zm1.73,7v.32a63.86,63.86,0,0,1-.33,6.47l0,.34a.66.66,0,0,1-.64.58h-.07a.64.64,0,0,1-.57-.71l0-.33a61.34,61.34,0,0,0,.33-6.34v-.31a.64.64,0,0,1,.64-.65h0A.64.64,0,0,1,124.85,64.25Z"/><path class="cls-1" d="M52.37,46.07a.63.63,0,0,0,.46.19.61.61,0,0,0,.45-.19l2.1-2.1,2.09,2.1a.65.65,0,0,0,.92,0,.65.65,0,0,0,0-.91l-2.1-2.1L58.39,41a.65.65,0,0,0-.92-.92l-2.09,2.1-2.1-2.1a.65.65,0,0,0-.91,0,.66.66,0,0,0,0,.92l2.1,2.09-2.1,2.1a.65.65,0,0,0,0,.91Zm-.86-13.74a.63.63,0,0,0,.46.19.61.61,0,0,0,.45-.19L59,25.72a.65.65,0,0,0-.92-.91l-6.61,6.61a.65.65,0,0,0,0,.91ZM50.12,14.11H77.44a.65.65,0,0,0,.65-.65.64.64,0,0,0-.65-.64H50.12a.64.64,0,0,0-.64.64.65.65,0,0,0,.64.65Zm0,4H64.18a.64.64,0,0,0,.65-.64.65.65,0,0,0-.65-.65H50.12a.65.65,0,0,0-.64.65.64.64,0,0,0,.64.64Zm0-7.63H64.18a.65.65,0,1,0,0-1.29H50.12a.65.65,0,0,0,0,1.29Zm0-3.62H70.61a.64.64,0,0,0,.65-.64.65.65,0,0,0-.65-.65H50.12a.65.65,0,0,0-.64.65.64.64,0,0,0,.64.64ZM61,25.17a2.13,2.13,0,0,0-.1.55,7.91,7.91,0,0,0-2.62,4.09l-4.1,4.1a.65.65,0,0,0,0,.91.61.61,0,0,0,.45.19.63.63,0,0,0,.46-.19l2.9-2.9a8,8,0,0,0,.92,3.79A6.38,6.38,0,1,1,61,25.17Zm.23,2a2.57,2.57,0,0,0,1,.94,5.54,5.54,0,0,0-.83,6.61,5,5,0,0,0,4.37,2.57,5.85,5.85,0,0,0,.59,0,2.73,2.73,0,0,0-.07.64,2.47,2.47,0,0,0,.12.72,6.37,6.37,0,0,1-6.19-3.17,6.84,6.84,0,0,1,1-8.27Zm3,1.09a3.62,3.62,0,0,0-.43.24,4.18,4.18,0,0,0-1.28,5.57,3.79,3.79,0,0,0,2.39,1.82,3.56,3.56,0,0,0,2.82-.48A4.19,4.19,0,0,0,69,29.83,3.78,3.78,0,0,0,66.57,28a3.54,3.54,0,0,0-.85-.11,3.61,3.61,0,0,0-1.17.21l-.25.1-.11,0Zm9.1-.77L72,27.17c.14.2.29.41.42.63a8.17,8.17,0,0,1,.39,7.51l1,0a3,3,0,0,0,3.17-3.29,3.06,3.06,0,0,0-.52-1.46l-1.3-1.89a3.08,3.08,0,0,0-1.81-1.24ZM68.72,26.4l.94.23a6.42,6.42,0,0,1,1.6,1.83,6.86,6.86,0,0,1,.11,6.79l-1.59-.08a5.56,5.56,0,0,0,.3-6,5.09,5.09,0,0,0-2.64-2.25l1.28-.53ZM45.54,1.29H74l0,6.54a.64.64,0,0,0,.19.46.66.66,0,0,0,.46.19h6.58V25.06l-4.1-2.5a3.63,3.63,0,0,0-1.27-.48L69.5,21a3.58,3.58,0,0,0-2,.27l-5.13,2.3a2.68,2.68,0,0,0-.68.45,7.69,7.69,0,0,0-9.11-.83A7.68,7.68,0,0,0,50,33.76a7.66,7.66,0,0,0,9.59,3.06,7.67,7.67,0,0,0,4.36,2.89,7.41,7.41,0,0,0,1.81.22,7.85,7.85,0,0,0,1.37-.13,2.72,2.72,0,0,0,1.15.64C70.2,41,74.92,42.2,81.21,44v5H45.54V1.29Zm29.75.91v5h5l-5-5ZM44.24,49.66V.65A.65.65,0,0,1,44.89,0H74.77a.44.44,0,0,1,.16.06l0,0a.71.71,0,0,1,.14.1h0l7.18,7.18a.62.62,0,0,1,.18.38.57.57,0,0,1,0,.18V26.07l5,6.35,4.06,3a.64.64,0,0,1,.14.9.66.66,0,0,1-.72.23.66.66,0,0,1-.19-.09L86.67,33.4a.49.49,0,0,1-.13-.12L81.3,26.63l-4.87-3a2,2,0,0,0-.81-.3L69.29,22.3a2.32,2.32,0,0,0-1.3.17l-5.14,2.31a1.23,1.23,0,0,0-.61,1.59,1.21,1.21,0,0,0,1.57.64l4.61-1.88a.65.65,0,0,1,.39,0l4.78,1.12A4.35,4.35,0,0,1,76.17,28l1.29,1.89a4.33,4.33,0,0,1-3.78,6.77L69,36.43a1.38,1.38,0,0,0-1,.39,1.37,1.37,0,0,0-.43,1,1.41,1.41,0,0,0,1,1.33c2.32.61,8.6,2.27,16.79,4.63a.61.61,0,0,1,.14.07l2.57,1.49.12.07a.65.65,0,0,1,.24.88.66.66,0,0,1-.56.32.68.68,0,0,1-.33-.09L85,45l-2.45-.7v5.32a.65.65,0,0,1-.65.65h-37A.65.65,0,0,1,44.24,49.66Z"/></g></g></svg>