<svg xmlns="http://www.w3.org/2000/svg" viewBox="0 0 124.67 123.32"><defs><style>.cls-1{fill:#fff;fill-rule:evenodd;}</style></defs><g id="Слой_2" data-name="Слой 2"><g id="_Layer_" data-name="&lt;Layer&gt;"><path class="cls-1" d="M86.66,96.08H66.57v1.59h0A1.78,1.78,0,0,0,68,99.4a1.37,1.37,0,0,0,.36,0H84.86a1.47,1.47,0,0,0,.36,0,1.78,1.78,0,0,0,1.44-1.73h0V96.08Zm1.17,1.59A3,3,0,0,1,85,100.61H68.38a3,3,0,0,1-1.16-.24,2.93,2.93,0,0,1-1.82-2.71h0V66.21a3,3,0,0,1,3-2.95H84.86a3,3,0,0,1,3,2.95v2.54a.59.59,0,0,1-1.17,0V66.21a1.79,1.79,0,0,0-1.8-1.77H68.38a1.79,1.79,0,0,0-1.81,1.77V94.9H86.66V92.6a.59.59,0,1,1,1.17,0v5.07Zm23-6.32c-1.3,0-2.64,0-3.87-.06a4.49,4.49,0,0,1-4.42-4.43c0-1,0-2.11-.06-3.27a11.59,11.59,0,0,0,2.08.18,14.85,14.85,0,0,0,3.67-.48.59.59,0,0,0-.3-1.14,12.15,12.15,0,0,1-5.47.24c0-1.8,0-3.59,0-5a.69.69,0,0,0-.18-.43.6.6,0,0,0-.33-.18s-2.27-.43-4.32-1A1.22,1.22,0,0,1,96.8,75a1.2,1.2,0,0,1,.06-1.06c1.42-2.6,3.89-7.35,4.38-10a1.18,1.18,0,0,0,0-.32l0-11.16v-.34a.58.58,0,0,0-.58-.59h0a.58.58,0,0,0-.58.59l0,11.53v.1c-.47,2.49-2.87,7.09-4.25,9.61a2.36,2.36,0,0,0-.12,2.07,2.41,2.41,0,0,0,1.54,1.4c1.58.47,3.22.83,4,1,0,2,0,4.61.07,6.91,0,.77,0,1.5,0,2.16a5.68,5.68,0,0,0,5.58,5.59l3.88.06a2.36,2.36,0,0,1,2.32,2.33l0,6.88a.58.58,0,0,0,.58.59h0a.59.59,0,0,0,.58-.59v-.68l0-6.21a3.55,3.55,0,0,0-3.49-3.5ZM79.51,81.18A17.32,17.32,0,0,1,83.1,70.56a.59.59,0,0,0-.94-.71,18.7,18.7,0,0,0,0,22.69.55.55,0,0,0,.46.23.54.54,0,0,0,.36-.12.58.58,0,0,0,.11-.82,17.36,17.36,0,0,1-3.61-10.65ZM87,72.71a.59.59,0,0,0-.82.1,13.71,13.71,0,0,0,0,16.71.58.58,0,0,0,.46.23.6.6,0,0,0,.36-.12.58.58,0,0,0,.11-.82,12.52,12.52,0,0,1,0-15.28.59.59,0,0,0-.11-.82Zm2.5,8.47a7.4,7.4,0,0,1,1.58-4.61.6.6,0,0,0-.11-.83.58.58,0,0,0-.82.11,8.69,8.69,0,0,0,0,10.67.6.6,0,0,0,.47.23.57.57,0,0,0,.36-.13.59.59,0,0,0,.1-.82,7.49,7.49,0,0,1-1.58-4.62ZM25.12,87.79a2.82,2.82,0,0,0,1.43,1c.9.34,1.62.32,1.84.12s.23-.2,0-.52a2.55,2.55,0,0,0-2-.94,2.5,2.5,0,0,0-1,.2.59.59,0,0,0-.26.17Zm.67,1.93c-.55-.26-1.85-1-1.84-2,0-.3.13-.85,1-1.21h0a3.81,3.81,0,0,1,4.48,1.19,1.5,1.5,0,0,1-.23,2,2,2,0,0,1-1.36.45,5.13,5.13,0,0,1-2-.49Zm-5,1.76a20.47,20.47,0,0,1-2.41.07c-3.24-.28-5.09-1-5.51-2.21a1.35,1.35,0,0,1-.08-.43,30,30,0,0,0-7.61,6.86h.27a2.81,2.81,0,0,1,1,.19,3,3,0,0,1,1.67,2.1c.46,1.58,2.65,2.39,4.34,2.13.41-.07,1.36-.29,1.34-1.06a4.17,4.17,0,0,1,1.87-3.89c.76-.41,2.05-.63,3.8.64a1.3,1.3,0,0,0,1.67-.11A3.65,3.65,0,0,0,22.5,92.2c-.22-.56-.79-.81-1.68-.72Zm15.76,7.73c1.48-2.9,3.93-2.09,6.52-1.23,2.86.94,6.39,2.11,10.62-.3a31.69,31.69,0,0,0-2-2.73h0l-.44-.51c-.14-.16-.28-.32-.38-.42l-.34-.36c-.24-.25-.48-.51-.73-.75a17.17,17.17,0,0,0-1.27-1.18,33.15,33.15,0,0,0-5.64-3.9c-.64-.34-1.29-.66-1.94-1l-.06,0c-.26-.11-1.32-.57-2-.8a36.06,36.06,0,0,0-4.44-1.18,4.09,4.09,0,0,1,.88,1.89,4.15,4.15,0,0,1-1.16,3.39c-1,1.13-1.06,2.15-.81,2.48s.56.2,1.09,0a1.92,1.92,0,0,1,.77-.18,1.18,1.18,0,0,1,.81.31,1.79,1.79,0,0,1,.23,2,5.12,5.12,0,0,1-4.76,3.06c-.25,0-.85.08-.89.38-.08.62,1.13,2,2.71,2.52a2.53,2.53,0,0,0,3.27-1.44Zm1.1.43-.06.11A3.67,3.67,0,0,1,34.29,102a4.6,4.6,0,0,1-1.33-.21A6,6,0,0,1,30,99.68a2.51,2.51,0,0,1-.57-1.7c0-.4.34-1.32,2-1.4a4.09,4.09,0,0,0,3.65-2.12,1.23,1.23,0,0,0,.14-.88,1.26,1.26,0,0,0-.3.09,2,2,0,0,1-2.52-.34c-.68-.93-.33-2.55.87-3.94A3.08,3.08,0,0,0,34.16,87a4,4,0,0,0-1.72-2.33.31.31,0,0,1-.11-.09,30.34,30.34,0,0,0-3.55-.22A30,30,0,0,0,14.6,87.86c-.29.28-.71.75-.59,1.09.17.5,1.46,1.17,4.5,1.43a19.11,19.11,0,0,0,2.2-.07c1.94-.18,2.64.83,2.88,1.45.65,1.64-.35,3.91-1.65,4.92a2.42,2.42,0,0,1-3.07.14,2.59,2.59,0,0,0-2.58-.56,3.11,3.11,0,0,0-1.24,2.83,1.85,1.85,0,0,1-.1.67,2.58,2.58,0,0,1-2.23,1.58,5.55,5.55,0,0,1-.82.06,5.65,5.65,0,0,1-4-1.6,3.55,3.55,0,0,1-.83-1.43,1.84,1.84,0,0,0-1-1.33,2.72,2.72,0,0,0-2,.25C3.53,98.11,3,99,2.54,99.82c0,.1-.11.19-.16.28a.58.58,0,0,1-.52.31.54.54,0,0,1-.27-.07.57.57,0,0,1-.24-.79A30.94,30.94,0,0,1,22.76,83.72a31.59,31.59,0,0,1,6-.59,30.57,30.57,0,0,1,4.24.31h0l1.46.24.11,0L36,84l.18,0c.43.11.87.22,1.31.35l.25.07c.49.14,1,.29,1.47.45l0,0c.47.15,1.08.4,1.53.59l.64.27,1,.48.07,0a34.06,34.06,0,0,1,6.78,4.52,13.39,13.39,0,0,1,1.35,1.26c.24.23.49.5.74.76l.19.21.14.14c.2.21.51.56.7.79l.18.21c.27.32.54.66.81,1l.33.44.37.51c.31.44.61.88.9,1.33l0,.07h0q.54.84,1,1.71a.59.59,0,1,1-1,.56l-.16-.27-.51-.89a13.38,13.38,0,0,1-1.89.9,12.38,12.38,0,0,1-8.1,0c-.58-.17-1.12-.35-1.64-.52-2.78-.91-4.07-1.25-5,.55Zm-24.09-76a.6.6,0,0,0,.47-.23,60.86,60.86,0,0,1,4.49-5.15.59.59,0,0,0-.84-.82,63.28,63.28,0,0,0-4.58,5.25.59.59,0,0,0,.1.82.57.57,0,0,0,.36.13ZM1.5,54.75A.59.59,0,0,0,1,54.1a.59.59,0,0,0-.65.53A63.71,63.71,0,0,0,0,61.1v.48a.59.59,0,0,0,.59.58h0a.58.58,0,0,0,.59-.59V61.1a61.38,61.38,0,0,1,.33-6.35ZM6.15,35.36a.74.74,0,0,0,.25,0,.58.58,0,0,0,.53-.34,60,60,0,0,1,3.24-6,.59.59,0,0,0-1-.62,62.33,62.33,0,0,0-3.3,6.13.6.6,0,0,0,.28.79ZM1.88,48.45H2A.59.59,0,0,0,2.57,48a64.87,64.87,0,0,1,1.82-6.59A.59.59,0,0,0,3.28,41a62.25,62.25,0,0,0-1.85,6.71.59.59,0,0,0,.45.7ZM23.21,13.81a.58.58,0,0,0,.37-.13,61.8,61.8,0,0,1,5.52-4,.59.59,0,0,0-.64-1,62.67,62.67,0,0,0-5.62,4.11.59.59,0,0,0-.08.83.57.57,0,0,0,.45.21ZM123.67,53.69a.59.59,0,0,0,.51-.66,61.16,61.16,0,0,0-1.27-6.85.59.59,0,0,0-.71-.43.6.6,0,0,0-.43.71A61.11,61.11,0,0,1,123,53.18a.58.58,0,0,0,.58.51ZM105,17.18a.58.58,0,0,0,.41.17.59.59,0,0,0,.41-1,63.14,63.14,0,0,0-5.24-4.58.59.59,0,0,0-.83.1.58.58,0,0,0,.11.82,64.39,64.39,0,0,1,5.14,4.5Zm4.78,5.25a62.43,62.43,0,0,1,3.87,5.3.57.57,0,0,0,.49.27.62.62,0,0,0,.32-.09.59.59,0,0,0,.17-.82,66,66,0,0,0-3.94-5.41l-.17-.21a.6.6,0,0,0-.83-.08.59.59,0,0,0-.08.83l.17.21Zm14.27,37a.58.58,0,0,0-.58.59c0,.29,0,.59,0,.88,0,2-.1,4-.29,5.95a.58.58,0,0,0,.53.64h.05a.59.59,0,0,0,.59-.53c.19-2,.29-4.05.29-6.06,0-.3,0-.6,0-.89a.57.57,0,0,0-.59-.58Zm-4.29-19.47a.58.58,0,0,0,.55.38l.21,0a.58.58,0,0,0,.34-.76,60.05,60.05,0,0,0-2.76-6.39.59.59,0,0,0-.79-.26.59.59,0,0,0-.26.79,59.87,59.87,0,0,1,2.71,6.27ZM88.24,5.56a61,61,0,0,1,6,3.23.58.58,0,0,0,.81-.19.59.59,0,0,0-.19-.81,62.49,62.49,0,0,0-6.14-3.3.59.59,0,0,0-.5,1.07ZM78,120.11a63,63,0,0,1-6.69,1.38.57.57,0,0,0-.49.66.58.58,0,0,0,.58.51h.08a62.93,62.93,0,0,0,6.82-1.4.59.59,0,1,0-.3-1.14Zm12.71-5A62,62,0,0,1,84.51,118a.58.58,0,0,0-.34.76.59.59,0,0,0,.55.38.78.78,0,0,0,.21,0,61.35,61.35,0,0,0,6.34-2.89.58.58,0,0,0,.25-.79.6.6,0,0,0-.8-.25Zm-39.8,5.91a60.14,60.14,0,0,1-6.64-1.64.59.59,0,0,0-.73.39.59.59,0,0,0,.39.74,64.1,64.1,0,0,0,6.76,1.66h.11a.57.57,0,0,0,.57-.48.59.59,0,0,0-.46-.68Zm13.6,1a62.4,62.4,0,0,1-6.83-.15.59.59,0,0,0-.63.54.58.58,0,0,0,.54.63c1.6.13,3.21.19,4.8.19.71,0,1.44,0,2.16,0a.59.59,0,0,0,.57-.61.58.58,0,0,0-.61-.56Zm37.5-14.6a60.44,60.44,0,0,1-5.44,4.14.6.6,0,0,0-.15.82.59.59,0,0,0,.48.25.56.56,0,0,0,.33-.1,61.18,61.18,0,0,0,5.54-4.21.59.59,0,0,0-.76-.9Zm-64.15,9.56a61.11,61.11,0,0,1-6.1-3.08.59.59,0,1,0-.58,1,59.29,59.29,0,0,0,6.22,3.13.46.46,0,0,0,.23,0,.58.58,0,0,0,.23-1.12Zm-11.81-6.82a.58.58,0,0,1,.12.82.57.57,0,0,1-.47.24.66.66,0,0,1-.35-.11A63.08,63.08,0,0,1,20,106.75a.58.58,0,1,1,.79-.86A62.36,62.36,0,0,0,26.06,110.25Z"/><path class="cls-1" d="M37.64,70.91a2.56,2.56,0,0,0-5.11,0c0,1,1.41,3.46,2.56,5.2,1.14-1.74,2.55-4.23,2.55-5.2Zm1.18,0c0,1.85-2.92,6.11-3.25,6.58,0,0,0,0,0,0v2.55a.59.59,0,1,1-1.17,0V77.15c-.79-1.17-3-4.62-3-6.24a3.74,3.74,0,0,1,7.47,0Z"/><path class="cls-1" d="M33.34,44.34a2,2,0,0,0,2,2h27l.11-4H53.58a.75.75,0,0,1-.74-.75v-10a.74.74,0,0,1,.74-.74h10A9.41,9.41,0,0,1,67,26.45V18a.76.76,0,0,1,.75-.75h10a.75.75,0,0,1,.74.75v8a9.07,9.07,0,0,1,4,4.23V14H33.34V44.34Zm0-36.58h0v4.75H82.48V7.76h0a2,2,0,0,0-1.62-2,2.71,2.71,0,0,0-.41,0H74.66V8.52A2.65,2.65,0,0,1,71.86,11a2.71,2.71,0,0,1-2.81-2.45V5.73H47.1V8.52A2.64,2.64,0,0,1,44.3,11a2.71,2.71,0,0,1-2.8-2.45V5.73H35.37a2.71,2.71,0,0,0-.41,0,2,2,0,0,0-1.62,2ZM77,18.73V25.3A11.3,11.3,0,0,0,75.81,25a12.38,12.38,0,0,0-5.25,0,10.49,10.49,0,0,0-2,.66V18.73ZM62.82,32.34V34c-.06.44-.11.9-.14,1.37l-.15,5.51h-8.2V32.34ZM70.55,2.45c0-.47.66-1,1.31-1s1.31.49,1.31,1V8.52c0,.52-.6,1-1.31,1s-1.31-.47-1.31-1V2.45ZM43,2.45c0-.47.66-1,1.31-1s1.31.49,1.31,1V8.52c0,.52-.6,1-1.31,1S43,9,43,8.52V2.45ZM60.67,51.53a.22.22,0,0,1-.22-.22.23.23,0,0,1,.11-.2l.92-.52a4.69,4.69,0,0,0,1.69-1.65,4,4,0,0,0,.69-2l.31-11.57c.3-5,2.62-8.07,6.72-9a9.38,9.38,0,0,1,2.22-.25,11.63,11.63,0,0,1,2.39.25c4.09.89,6.41,4,6.71,8.95L82.69,47v0a4,4,0,0,0,.41,1.65,5.27,5.27,0,0,0,1.44,1.76l.78.62a.21.21,0,0,1,.09.18v.11a.21.21,0,0,1-.22.21ZM75.38,53H70.47a2.56,2.56,0,0,0,4.91,0Zm1.55,0A4.16,4.16,0,0,1,76,54.93,4.06,4.06,0,0,1,68.93,53H60.67a1.71,1.71,0,0,1-.85-3.2l.92-.53c.1,0,.19-.12.29-.18a3.71,3.71,0,0,0,.87-.94l.18-.31H35.37a3.53,3.53,0,0,1-3.52-3.52V7.76h0a3.51,3.51,0,0,1,1-2.49l.25-.22A3.22,3.22,0,0,1,34,4.52a3.11,3.11,0,0,1,.54-.18,3.7,3.7,0,0,1,.83-.1H41.5V2.45a2.83,2.83,0,0,1,5.6,0V4.24H69.05V2.45a2.83,2.83,0,0,1,5.61,0V4.24h5.79a3.49,3.49,0,0,1,1.37.28,3.38,3.38,0,0,1,.87.53l.25.22a3.55,3.55,0,0,1,1,2.49h0V41.82l.21,5.09A2.56,2.56,0,0,0,84.44,48a3.71,3.71,0,0,0,1,1.25l.78.62a1.71,1.71,0,0,1,.65,1.41v.1A1.7,1.7,0,0,1,85.18,53ZM54.33,27.23v-8.5h8.49v8.5ZM52.84,28V18a.75.75,0,0,1,.74-.75h10a.76.76,0,0,1,.75.75V28a.75.75,0,0,1-.75.74h-10a.74.74,0,0,1-.74-.74ZM48,32.34v8.49H39.5V32.34Zm1.49,9.24a.75.75,0,0,1-.74.75h-10a.76.76,0,0,1-.75-.75v-10a.75.75,0,0,1,.75-.74h10a.74.74,0,0,1,.74.74v10Zm-10-14.35v-8.5H48v8.5ZM38,28V18a.76.76,0,0,1,.75-.75h10a.75.75,0,0,1,.74.75V28a.74.74,0,0,1-.74.74h-10A.75.75,0,0,1,38,28ZM42.77,58.8a.75.75,0,0,0-1.05.11Z"/><path class="cls-1" d="M9.07,69.24a3,3,0,0,0-6.09,0c0,1.16,1.69,4.11,3,6.18,1.36-2.07,3.05-5,3.05-6.18Zm1.39,0c0,2.21-3.47,7.26-3.86,7.83a.08.08,0,0,1,0,0V87.52a.7.7,0,1,1-1.39,0V76.66c-.93-1.39-3.58-5.49-3.58-7.42a4.44,4.44,0,0,1,8.87,0Z"/></g></g></svg>