<svg xmlns="http://www.w3.org/2000/svg" viewBox="0 0 126.01 125.99"><defs><style>.cls-1{fill:#fff;fill-rule:evenodd;}</style></defs><g id="Слой_2" data-name="Слой 2"><g id="_Layer_" data-name="&lt;Layer&gt;"><path class="cls-1" d="M81.6,27.47a.63.63,0,0,0,.55.32.66.66,0,0,0,.33-.09.64.64,0,0,0,.23-.88L74.76,13.19a.64.64,0,0,0-.88-.24.65.65,0,0,0-.23.89L81.6,27.47Zm-2,4.37a.64.64,0,0,0-.58.7l1.56,17.29a.65.65,0,0,0,.65.58h0a.65.65,0,0,0,.59-.7L80.3,32.42a.66.66,0,0,0-.71-.58ZM70.86,48.13l-4.08-8.61a.66.66,0,0,1,0-.68l1-1.58a9.74,9.74,0,0,0,.76-2.08,4.52,4.52,0,0,0,.2-1.32,9.51,9.51,0,0,0-2.58,2.4l-1,1.58a.62.62,0,0,1-.4.29.82.82,0,0,1-.27,0L55,38.41l-.52.45,5.85,1.23a3.35,3.35,0,0,1,1.13.45l.9.55a.71.71,0,0,1,.3.4.67.67,0,0,1-.07.5l-1.29,2.1a6.34,6.34,0,0,0-.74,1.83,8.73,8.73,0,0,1-.32,1.13.66.66,0,0,1-.64.43l-1.91-.09,4,2.43-.94-1.67a.63.63,0,0,1,.09-.75,8.85,8.85,0,0,1,.84-.8,5.61,5.61,0,0,0,1.26-1.46L64.23,43a.65.65,0,0,1,.84-.25l.07,0,.9.56a3.41,3.41,0,0,1,.9.79l3.75,4.66.17-.67Zm1.19-.51a1.22,1.22,0,0,1,.07.8l-.47,1.83a.69.69,0,0,1-.53.51.71.71,0,0,1-.7-.23L65.93,45a2.32,2.32,0,0,0-.57-.51L65,44.21l-1,1.61a7,7,0,0,1-1.54,1.78l-.39.34,1.29,2.28a.85.85,0,0,1-.25,1.12l-.22.15a.82.82,0,0,1-.49.16.86.86,0,0,1-.46-.14L59.53,50l-.6,1a.64.64,0,0,1-.56.32.62.62,0,0,1-.32-.09.64.64,0,0,1-.23-.88l.61-1L56,47.89a.84.84,0,0,1-.4-.83l0-.28a.85.85,0,0,1,.89-.73l2.6.12c0-.19.1-.36.13-.52a7.12,7.12,0,0,1,.9-2.23l1-1.55-.38-.23a2.06,2.06,0,0,0-.72-.29l-7-1.46a.74.74,0,0,1-.54-.5.72.72,0,0,1,.2-.71l1.43-1.27a1.19,1.19,0,0,1,.75-.29l9.31-.27L65,35.58s2.92-3.83,4.42-2.91c.62.38.72,1.28.31,2.83a10.69,10.69,0,0,1-.91,2.44l-.77,1.26,4,8.42Zm16.6-17.33a2.29,2.29,0,0,0-1.45.83,2.35,2.35,0,0,0-.52,1.73A2.35,2.35,0,0,0,89.14,35l.24,2.36a2.29,2.29,0,0,0-1.45.83A2.34,2.34,0,0,0,89.86,42l.24,2.36a2.35,2.35,0,0,0-2,2.56A2.33,2.33,0,0,0,90.58,49l.12,1.15L44.94,54.86l-.11-1.14a2.35,2.35,0,0,0,1.11-4.15,2.32,2.32,0,0,0-1.6-.52L44.1,46.7a2.36,2.36,0,0,0,1.12-4.15,2.34,2.34,0,0,0-1.6-.52l-.24-2.35a2.31,2.31,0,0,0,1.45-.84A2.34,2.34,0,0,0,42.9,35l-.13-1.22,2-.21h0l42.65-4.4h0l1.06-.11.12,1.22Zm-47.19-.85L81.57,6.86l.52.93A2.46,2.46,0,0,0,81.34,11,2.46,2.46,0,0,0,84,12.19a4,4,0,0,0,.45-.15L85.57,14a2.46,2.46,0,0,0-.75,3.22,2.47,2.47,0,0,0,2.7,1.18,2.32,2.32,0,0,0,.44-.16l1.09,1.93a2.45,2.45,0,0,0,2,4.4,1.76,1.76,0,0,0,.44-.15l.48.86-4.71,2.66L72.39,29.43l5.69-3.27a.64.64,0,0,0,.23-.88.65.65,0,0,0-.88-.24l-8.19,4.72-5.45.56,13.46-7.57a.65.65,0,0,0,.25-.88.64.64,0,0,0-.88-.24l-15.84,8.9a.79.79,0,0,0-.15.12l-5.84.6,19.4-11.16a.64.64,0,0,0,.23-.88.65.65,0,0,0-.88-.24L51.63,31.58l-6.22.64a2.57,2.57,0,0,0-.28-.82A2.47,2.47,0,0,0,43,30.15a2.1,2.1,0,0,0-.56.07,1.83,1.83,0,0,0-.45.15l-.52-.93Zm-1.2-.81L60.65,17.16,81.5,5.42A.65.65,0,0,1,82,5.36a.64.64,0,0,1,.39.31l1.15,2a.61.61,0,0,1,.06.49.59.59,0,0,1-.3.39l-.38.21a1.14,1.14,0,0,0-.55.7,1.17,1.17,0,0,0,.11.88,1.16,1.16,0,0,0,1.27.55,1,1,0,0,0,.3-.11l.38-.22a.64.64,0,0,1,.88.25l1.71,3a.69.69,0,0,1,.06.49.7.7,0,0,1-.31.39l-.38.21a1.16,1.16,0,0,0,.84,2.13.94.94,0,0,0,.3-.12l.38-.21a.64.64,0,0,1,.49-.06.7.7,0,0,1,.39.31l1.71,3a.65.65,0,0,1-.25.88l-.38.22a1.16,1.16,0,0,0,.84,2.13,1.88,1.88,0,0,0,.3-.12l.37-.21a.61.61,0,0,1,.49-.06.59.59,0,0,1,.39.3l1.12,2a.65.65,0,0,1-.25.88L91.47,27l-1.82,1a.73.73,0,0,1,.1.28l.25,2.5a.64.64,0,0,1-.57.71l-.52.06a1,1,0,0,0-.71.38,1.1,1.1,0,0,0-.24.78,1.07,1.07,0,0,0,1.17.94l.52,0a.63.63,0,0,1,.7.57l.38,3.63a.64.64,0,0,1-.58.71l-.52.06a1,1,0,0,0-.7.38,1,1,0,0,0-.24.78,1,1,0,0,0,1.16.94l.52,0a.61.61,0,0,1,.47.14.63.63,0,0,1,.24.43l.37,3.63a.64.64,0,0,1-.57.71l-.52.06a1,1,0,0,0-.71.38,1,1,0,0,0,.15,1.49,1,1,0,0,0,.77.23l.52-.05a.64.64,0,0,1,.71.57l.25,2.43a.65.65,0,0,1-.57.71l-.52,0-46.53,4.8h-.06a.66.66,0,0,1-.65-.58l-.25-2.42a.66.66,0,0,1,.58-.71l.52,0a1.06,1.06,0,0,0,.71-.39,1,1,0,0,0,.23-.77,1,1,0,0,0-.38-.72,1.05,1.05,0,0,0-.78-.23l-.52,0a.61.61,0,0,1-.47-.14.6.6,0,0,1-.23-.43l-.38-3.63a.64.64,0,0,1,.58-.71l.52,0a1,1,0,0,0,.7-.38,1.07,1.07,0,0,0,.24-.78,1.06,1.06,0,0,0-.39-.72,1,1,0,0,0-.77-.23l-.52,0a.64.64,0,0,1-.71-.57L42,39.17a.64.64,0,0,1,.57-.71l.52-.05a1.09,1.09,0,0,0,.71-.38,1.12,1.12,0,0,0,.24-.78,1.06,1.06,0,0,0-.39-.72,1,1,0,0,0-.78-.23l-.51.06a.69.69,0,0,1-.48-.15.6.6,0,0,1-.23-.43l-.26-2.5a.64.64,0,0,1,.57-.71l2.13-.22a1.15,1.15,0,0,0-1.39-.88,1.34,1.34,0,0,0-.3.12l-.38.21a.61.61,0,0,1-.49.06.59.59,0,0,1-.39-.3l-1.15-2A.64.64,0,0,1,40,29a.73.73,0,0,1,.3-.39Zm63.17,59.22a18.15,18.15,0,1,0-33.55-9.59,18.36,18.36,0,0,0,.48,4.16,4.6,4.6,0,0,1,.87.47l.06,0,3.39,2.63A15.22,15.22,0,1,1,100,87.7a14.77,14.77,0,0,1,3.48.15ZM97.94,88l-.19,0c-.46.12-.88.25-1.28.38a16.72,16.72,0,0,1-4.36.85c-3.29.25-4.79.25-6.25.24h-.45a7.68,7.68,0,0,0-2,.19,3,3,0,0,0-1,.39,4.12,4.12,0,0,0-.7.57A13.92,13.92,0,1,1,97.94,88Zm15.23,5.17a.65.65,0,0,1-.88.2h0l-.8-.53a24.5,24.5,0,0,0-5.92-3.23,13.9,13.9,0,0,0-7.48-.31c-.42.11-.81.23-1.21.36a17.81,17.81,0,0,1-4.65.91c-3.34.25-4.94.25-6.35.24h-.43a6.62,6.62,0,0,0-1.66.15,2,2,0,0,0-.59.21,2.17,2.17,0,0,0-.83.9h0a1.75,1.75,0,0,0-.07,1A2.6,2.6,0,0,0,84,95a3.38,3.38,0,0,0,1.15.19c.11,0,10,.29,13.88-.2a.65.65,0,0,1,.16,1.29,75.19,75.19,0,0,1-7.76.29c-3.22,0-6.09-.08-6.31-.09a4.42,4.42,0,0,1-1.57-.27A3.86,3.86,0,0,1,81,93.36a3.14,3.14,0,0,1,0-1.26L70.54,84h0a2.79,2.79,0,0,0-3.57.11,2,2,0,0,0-.62,1.48,2.49,2.49,0,0,0,.81,1.8l0,0c6.63,7.62,19.29,14.9,19.41,15a9.06,9.06,0,0,0,4.85.94c1.79-.15,4.28-.55,6.68-.94,1.65-.27,3.21-.53,4.58-.71a5.61,5.61,0,0,1,3.41.64l.3.17.2.1,0,0a.64.64,0,0,1-.62,1.13l-.24-.13-.3-.17a4.34,4.34,0,0,0-2.62-.49c-1.35.18-2.9.43-4.55.7-2.42.39-4.93.8-6.77,1-.29,0-.58,0-.88,0A10.2,10.2,0,0,1,86,103.52l-.76-.44c-2.87-1.71-13.09-8-19-14.81a3.75,3.75,0,0,1-1.17-2.7,3.34,3.34,0,0,1,1-2.41,3.81,3.81,0,0,1,2.9-1,19.44,19.44,0,1,1,35.82,6c.36.08.73.18,1.11.28a25.39,25.39,0,0,1,6.31,3.42c.22.16.48.33.76.51a.65.65,0,0,1,.2.89ZM88.44,76.78c3,0,5.38,2,5.38,4.39,0,2.24-2.07,4.1-4.74,4.36v.54a.65.65,0,0,1-1.29,0v-.54c-2.67-.26-4.74-2.12-4.74-4.36a.65.65,0,0,1,1.29,0c0,1.71,1.84,3.1,4.1,3.1s4.09-1.39,4.09-3.1-1.84-3.1-4.09-3.1c-2.8,0-5.07-1.84-5.07-4.1,0-2.09,1.93-3.82,4.42-4v-.66a.65.65,0,1,1,1.29,0v.67c2.41.29,4.28,2,4.28,4a.65.65,0,0,1-1.3,0c0-1.54-1.66-2.79-3.7-2.79s-3.7,1.25-3.7,2.79,1.73,2.81,3.78,2.81ZM38.2,6.36a.58.58,0,0,0,.26-.06,61.8,61.8,0,0,1,6.63-2.43.66.66,0,0,0,.43-.81.65.65,0,0,0-.81-.43A64.32,64.32,0,0,0,38,5.12a.65.65,0,0,0-.34.85.65.65,0,0,0,.59.39ZM15.46,23.23A.64.64,0,0,0,16,23a63.64,63.64,0,0,1,4.87-5.12.64.64,0,0,0,0-.91.66.66,0,0,0-.92,0,62.82,62.82,0,0,0-5,5.22.65.65,0,0,0,.07.91.66.66,0,0,0,.42.15Zm10.4-9.74a.69.69,0,0,0,.39-.12,61.82,61.82,0,0,1,5.9-3.88.65.65,0,1,0-.64-1.12,63.23,63.23,0,0,0-6,4,.64.64,0,0,0,.38,1.16Zm26-11.27H52a63.6,63.6,0,0,1,7-.87A.64.64,0,1,0,58.88.06a61.66,61.66,0,0,0-7.16.88.65.65,0,0,0,.12,1.28ZM4.52,82.77a.65.65,0,0,0-1.23.41A62.4,62.4,0,0,0,6,89.87a.64.64,0,0,0,.58.36.67.67,0,0,0,.28-.06.65.65,0,0,0,.31-.86,59.65,59.65,0,0,1-2.65-6.54ZM66,1.29c1.12.06,2.24.14,3.35.26s2.46.29,3.67.49h.11a.66.66,0,0,0,.64-.55.65.65,0,0,0-.54-.74C72,.56,70.77.39,69.51.26S67.23.06,66.09,0a.64.64,0,0,0-.67.61.64.64,0,0,0,.61.68ZM11.52,27.74a.66.66,0,0,0-.9.18A63.34,63.34,0,0,0,7,34.14a.65.65,0,0,0,.28.87.73.73,0,0,0,.29.07.66.66,0,0,0,.58-.35,61.84,61.84,0,0,1,3.58-6.09.65.65,0,0,0-.17-.9ZM1.56,69a.64.64,0,1,0-1.28.12,63.26,63.26,0,0,0,1.1,7.13.64.64,0,0,0,.63.51l.13,0a.65.65,0,0,0,.5-.76,63.26,63.26,0,0,1-1.08-7ZM.65,62.55a.64.64,0,0,0,.64-.63c0-1.77.14-3.55.33-5.32.06-.58.12-1.16.2-1.73a.65.65,0,0,0-.56-.73.66.66,0,0,0-.72.56q-.12.88-.21,1.77C.14,58.27,0,60.09,0,61.89a.65.65,0,0,0,.63.66Zm4.22-22.2a.65.65,0,0,0-.83.38,61.56,61.56,0,0,0-2.15,6.88.65.65,0,0,0,.47.79l.16,0a.65.65,0,0,0,.62-.49,61.34,61.34,0,0,1,2.11-6.75.66.66,0,0,0-.38-.83ZM109.21,22a.64.64,0,0,0,.91.06.66.66,0,0,0,.06-.92,66.32,66.32,0,0,0-5.08-5.12.66.66,0,0,0-.91.05.65.65,0,0,0,0,.91,62.08,62.08,0,0,1,5,5Zm16.07,45a.64.64,0,0,0-.69.6l-.15,1.65c-.19,1.79-.45,3.59-.79,5.35a.65.65,0,0,0,.51.76h.12a.65.65,0,0,0,.64-.53c.34-1.79.61-3.63.8-5.45.06-.57.11-1.13.15-1.69a.65.65,0,0,0-.59-.7Zm-.69-14.23a.64.64,0,0,0-.54.73,59.29,59.29,0,0,1,.67,7,.65.65,0,0,0,.65.62h0a.63.63,0,0,0,.62-.67,63.71,63.71,0,0,0-.68-7.17.64.64,0,0,0-.74-.54Zm-.77-6.51a60.94,60.94,0,0,0-2.31-6.83.65.65,0,0,0-.84-.36.64.64,0,0,0-.35.84,61.17,61.17,0,0,1,2.26,6.69.64.64,0,0,0,.62.47.5.5,0,0,0,.17,0,.64.64,0,0,0,.45-.79Zm-9.18-19.49a.65.65,0,1,0-1,.75,63.76,63.76,0,0,1,3.72,6,.62.62,0,0,0,.56.34.68.68,0,0,0,.31-.08.65.65,0,0,0,.26-.88,63.68,63.68,0,0,0-3.8-6.13Zm8.09,54.26a.64.64,0,0,0-.81.42,65,65,0,0,1-2.5,6.61.63.63,0,0,0,.59.9.65.65,0,0,0,.59-.38,65.21,65.21,0,0,0,2.55-6.74.64.64,0,0,0-.42-.81Zm-30-72.25a60,60,0,0,1,6,3.76.65.65,0,0,0,.9-.15.64.64,0,0,0-.15-.9,60.72,60.72,0,0,0-6.11-3.84.64.64,0,1,0-.62,1.13ZM56.52,124.35a64.87,64.87,0,0,1-7-1.13.65.65,0,0,0-.28,1.26,67.7,67.7,0,0,0,7.12,1.16h.07a.66.66,0,0,0,.64-.58.65.65,0,0,0-.58-.71ZM23.39,111.17a.64.64,0,0,0,.1.9,63.32,63.32,0,0,0,5.86,4.21.74.74,0,0,0,.35.1.65.65,0,0,0,.34-1.19,62.56,62.56,0,0,1-5.74-4.12l-.91.1ZM42.75,121.3a60.94,60.94,0,0,1-6.53-2.69.65.65,0,0,0-.86.3.64.64,0,0,0,.3.86,63.59,63.59,0,0,0,6.67,2.75.76.76,0,0,0,.21,0,.64.64,0,0,0,.21-1.25Zm41.59-.39A59.17,59.17,0,0,1,77.58,123a.65.65,0,0,0-.48.78.66.66,0,0,0,.63.49.39.39,0,0,0,.15,0,63.07,63.07,0,0,0,6.9-2.09.65.65,0,0,0-.44-1.22Zm12.59-6.35a63,63,0,0,1-6.11,3.54.64.64,0,0,0,.29,1.22.62.62,0,0,0,.29-.07,64.4,64.4,0,0,0,6.24-3.61.65.65,0,0,0,.18-.9.63.63,0,0,0-.89-.18ZM71.35,124.8a.66.66,0,0,1-.56.72,64.15,64.15,0,0,1-7.2.47h0a.65.65,0,0,1,0-1.29,63.86,63.86,0,0,0,7-.46A.64.64,0,0,1,71.35,124.8Z"/><path class="cls-1" d="M17.08,65.07H37.57a.65.65,0,0,0,0-1.29H17.08a.65.65,0,0,0,0,1.29Zm32.37,39.6v3.19a.64.64,0,0,1-.64.64h-37a.65.65,0,0,1-.65-.64v-49a.65.65,0,0,1,.65-.64H41.6a.66.66,0,0,1,.46.19l7.18,7.19a.84.84,0,0,1,.21.56v38.55H48.16v-38H41.58a.65.65,0,0,1-.64-.65V59.49H12.49v47.72H48.16v-2.54ZM42.24,60.4v5h5Z"/><path class="cls-1" d="M17.08,72.3H44.4a.65.65,0,0,0,0-1.29H17.08a.65.65,0,0,0,0,1.29Zm0,4H31.14a.65.65,0,0,0,0-1.29H17.08a.65.65,0,0,0,0,1.29Zm0-7.63H31.14a.65.65,0,0,0,0-1.29H17.08A.65.65,0,0,0,17.08,68.69Z"/><path class="cls-1" d="M17.08,83.92H44.4a.65.65,0,0,0,0-1.29H17.08a.65.65,0,0,0,0,1.29Zm0,4H31.14a.65.65,0,0,0,0-1.3H17.08a.65.65,0,0,0,0,1.3Zm0-7.64H31.14a.65.65,0,0,0,0-1.29H17.08A.65.65,0,0,0,17.08,80.3Z"/><path class="cls-1" d="M17.08,95.35H44.4a.65.65,0,0,0,0-1.29H17.08a.65.65,0,0,0,0,1.29Zm0,4H31.14a.65.65,0,0,0,0-1.29H17.08a.65.65,0,0,0,0,1.29Zm0-7.63H31.14a.65.65,0,0,0,0-1.29H17.08A.65.65,0,0,0,17.08,91.73Z"/></g></g></svg>